<svg xmlns="http://www.w3.org/2000/svg" xmlns:xlink="http://www.w3.org/1999/xlink" width="2000" zoomAndPan="magnify" viewBox="0 0 1500 1499.999933" height="2000" preserveAspectRatio="xMidYMid meet" version="1.0"><defs><clipPath id="81564a16bd"><path d="M 607 894 L 893 894 L 893 1099.703125 L 607 1099.703125 Z M 607 894 " clip-rule="nonzero"/></clipPath><clipPath id="85756369b4"><path d="M 901 931 L 1085 931 L 1085 1099.703125 L 901 1099.703125 Z M 901 931 " clip-rule="nonzero"/></clipPath><clipPath id="8a0cfce1ba"><path d="M 415 931 L 599 931 L 599 1099.703125 L 415 1099.703125 Z M 415 931 " clip-rule="nonzero"/></clipPath><clipPath id="272e49a271"><path d="M 343.558594 400 L 1156.558594 400 L 1156.558594 980 L 343.558594 980 Z M 343.558594 400 " clip-rule="nonzero"/></clipPath></defs><g clip-path="url(#81564a16bd)"><path fill="#28434e" d="M 862.246094 1099.859375 C 862.109375 1099.886719 861.945312 1099.886719 861.785156 1099.886719 L 638.125 1099.886719 C 637.988281 1099.886719 637.824219 1099.886719 637.691406 1099.859375 C 620.023438 1099.644531 606.152344 1084.527344 607.480469 1066.859375 L 608.699219 1050.632812 L 610.597656 1024.972656 L 613.523438 985.441406 C 613.523438 982.949219 613.605469 980.511719 613.765625 978.074219 C 615.960938 945.019531 632.867188 915.972656 657.984375 897.441406 C 662.777344 893.894531 669.523438 893.839844 673.886719 897.902344 C 688.925781 911.855469 707.753906 921.71875 728.617188 925.78125 C 735.527344 927.109375 742.679688 927.816406 749.96875 927.816406 C 757.28125 927.816406 764.410156 927.109375 771.316406 925.78125 C 792.207031 921.71875 811.035156 911.855469 826.046875 897.902344 C 830.4375 893.839844 837.15625 893.894531 841.949219 897.441406 C 867.066406 915.972656 883.972656 945.019531 886.167969 978.074219 C 886.332031 980.511719 886.410156 982.949219 886.410156 985.441406 L 889.339844 1024.972656 L 891.234375 1050.632812 L 892.453125 1066.859375 C 893.78125 1084.527344 879.910156 1099.617188 862.246094 1099.859375 Z M 862.246094 1099.859375 " fill-opacity="1" fill-rule="nonzero"/></g><path fill="#28434e" d="M 827.941406 815.917969 C 827.941406 817.191406 827.910156 818.46875 827.847656 819.742188 C 827.785156 821.015625 827.691406 822.289062 827.566406 823.558594 C 827.441406 824.828125 827.285156 826.097656 827.097656 827.359375 C 826.910156 828.621094 826.695312 829.878906 826.445312 831.128906 C 826.195312 832.378906 825.917969 833.625 825.605469 834.863281 C 825.296875 836.101562 824.957031 837.332031 824.585938 838.550781 C 824.214844 839.773438 823.816406 840.984375 823.386719 842.1875 C 822.957031 843.386719 822.496094 844.578125 822.007812 845.757812 C 821.519531 846.9375 821.003906 848.101562 820.457031 849.257812 C 819.910156 850.410156 819.335938 851.550781 818.734375 852.675781 C 818.132812 853.800781 817.503906 854.910156 816.847656 856.003906 C 816.195312 857.097656 815.511719 858.175781 814.800781 859.238281 C 814.09375 860.300781 813.359375 861.34375 812.597656 862.367188 C 811.839844 863.390625 811.054688 864.398438 810.242188 865.382812 C 809.433594 866.371094 808.601562 867.335938 807.742188 868.28125 C 806.886719 869.226562 806.007812 870.152344 805.105469 871.054688 C 804.203125 871.957031 803.277344 872.835938 802.332031 873.691406 C 801.386719 874.550781 800.421875 875.382812 799.433594 876.191406 C 798.449219 877.003906 797.441406 877.789062 796.417969 878.546875 C 795.390625 879.308594 794.347656 880.042969 793.289062 880.75 C 792.226562 881.460938 791.148438 882.144531 790.054688 882.800781 C 788.960938 883.457031 787.851562 884.085938 786.726562 884.6875 C 785.597656 885.289062 784.460938 885.859375 783.304688 886.40625 C 782.152344 886.953125 780.984375 887.46875 779.808594 887.957031 C 778.628906 888.445312 777.4375 888.90625 776.238281 889.335938 C 775.035156 889.765625 773.824219 890.164062 772.601562 890.535156 C 771.382812 890.90625 770.152344 891.246094 768.914062 891.554688 C 767.675781 891.867188 766.429688 892.144531 765.179688 892.394531 C 763.929688 892.644531 762.671875 892.863281 761.410156 893.050781 C 760.144531 893.234375 758.878906 893.390625 757.609375 893.515625 C 756.339844 893.640625 755.066406 893.738281 753.792969 893.800781 C 752.519531 893.863281 751.242188 893.894531 749.96875 893.894531 C 748.691406 893.894531 747.414062 893.863281 746.140625 893.800781 C 744.867188 893.738281 743.59375 893.640625 742.324219 893.515625 C 741.054688 893.390625 739.789062 893.234375 738.527344 893.050781 C 737.261719 892.863281 736.007812 892.644531 734.753906 892.394531 C 733.503906 892.144531 732.257812 891.867188 731.019531 891.554688 C 729.78125 891.246094 728.554688 890.90625 727.332031 890.535156 C 726.109375 890.164062 724.898438 889.765625 723.699219 889.335938 C 722.496094 888.90625 721.304688 888.445312 720.125 887.957031 C 718.949219 887.46875 717.78125 886.953125 716.628906 886.40625 C 715.472656 885.859375 714.335938 885.289062 713.210938 884.6875 C 712.082031 884.085938 710.972656 883.457031 709.878906 882.800781 C 708.785156 882.144531 707.707031 881.460938 706.644531 880.75 C 705.585938 880.042969 704.542969 879.308594 703.515625 878.546875 C 702.492188 877.789062 701.484375 877.003906 700.5 876.191406 C 699.511719 875.382812 698.546875 874.550781 697.601562 873.691406 C 696.65625 872.835938 695.730469 871.957031 694.828125 871.054688 C 693.925781 870.152344 693.046875 869.226562 692.191406 868.28125 C 691.332031 867.335938 690.5 866.371094 689.691406 865.382812 C 688.882812 864.398438 688.097656 863.390625 687.335938 862.367188 C 686.574219 861.34375 685.839844 860.300781 685.132812 859.238281 C 684.421875 858.175781 683.742188 857.097656 683.085938 856.003906 C 682.429688 854.910156 681.800781 853.800781 681.199219 852.675781 C 680.597656 851.550781 680.023438 850.410156 679.476562 849.257812 C 678.933594 848.101562 678.414062 846.9375 677.925781 845.757812 C 677.4375 844.578125 676.980469 843.386719 676.550781 842.1875 C 676.117188 840.984375 675.71875 839.773438 675.347656 838.550781 C 674.976562 837.332031 674.636719 836.101562 674.328125 834.863281 C 674.019531 833.625 673.738281 832.378906 673.488281 831.128906 C 673.238281 829.878906 673.023438 828.621094 672.835938 827.359375 C 672.648438 826.097656 672.492188 824.828125 672.367188 823.558594 C 672.242188 822.289062 672.148438 821.015625 672.085938 819.742188 C 672.023438 818.46875 671.992188 817.191406 671.992188 815.917969 C 671.992188 814.640625 672.023438 813.367188 672.085938 812.089844 C 672.148438 810.816406 672.242188 809.542969 672.367188 808.273438 C 672.492188 807.003906 672.648438 805.738281 672.835938 804.476562 C 673.023438 803.214844 673.238281 801.957031 673.488281 800.703125 C 673.738281 799.453125 674.019531 798.207031 674.328125 796.96875 C 674.636719 795.730469 674.976562 794.503906 675.347656 793.28125 C 675.71875 792.058594 676.117188 790.847656 676.550781 789.648438 C 676.980469 788.445312 677.4375 787.253906 677.925781 786.078125 C 678.414062 784.898438 678.933594 783.730469 679.476562 782.578125 C 680.023438 781.425781 680.597656 780.285156 681.199219 779.160156 C 681.800781 778.035156 682.429688 776.921875 683.085938 775.828125 C 683.742188 774.734375 684.421875 773.65625 685.132812 772.59375 C 685.839844 771.535156 686.574219 770.492188 687.335938 769.464844 C 688.097656 768.441406 688.882812 767.4375 689.691406 766.449219 C 690.5 765.460938 691.332031 764.496094 692.191406 763.550781 C 693.046875 762.605469 693.925781 761.679688 694.828125 760.777344 C 695.730469 759.875 696.65625 758.996094 697.601562 758.140625 C 698.546875 757.28125 699.511719 756.449219 700.5 755.640625 C 701.484375 754.832031 702.492188 754.046875 703.515625 753.285156 C 704.542969 752.523438 705.585938 751.789062 706.644531 751.082031 C 707.707031 750.371094 708.785156 749.691406 709.878906 749.035156 C 710.972656 748.378906 712.082031 747.75 713.210938 747.148438 C 714.335938 746.546875 715.472656 745.972656 716.628906 745.425781 C 717.78125 744.882812 718.949219 744.363281 720.125 743.875 C 721.304688 743.386719 722.496094 742.929688 723.699219 742.5 C 724.898438 742.070312 726.109375 741.667969 727.332031 741.296875 C 728.554688 740.925781 729.78125 740.585938 731.019531 740.277344 C 732.257812 739.96875 733.503906 739.6875 734.753906 739.4375 C 736.007812 739.191406 737.261719 738.972656 738.527344 738.785156 C 739.789062 738.597656 741.054688 738.441406 742.324219 738.316406 C 743.59375 738.191406 744.867188 738.097656 746.140625 738.035156 C 747.414062 737.972656 748.691406 737.941406 749.96875 737.941406 C 751.242188 737.941406 752.519531 737.972656 753.792969 738.035156 C 755.066406 738.097656 756.339844 738.191406 757.609375 738.316406 C 758.878906 738.441406 760.144531 738.597656 761.410156 738.785156 C 762.671875 738.972656 763.929688 739.191406 765.179688 739.4375 C 766.429688 739.6875 767.675781 739.96875 768.914062 740.277344 C 770.152344 740.585938 771.382812 740.925781 772.601562 741.296875 C 773.824219 741.667969 775.035156 742.070312 776.238281 742.5 C 777.4375 742.929688 778.628906 743.386719 779.808594 743.875 C 780.984375 744.363281 782.152344 744.882812 783.304688 745.425781 C 784.460938 745.972656 785.597656 746.546875 786.726562 747.148438 C 787.851562 747.75 788.960938 748.378906 790.054688 749.035156 C 791.148438 749.691406 792.226562 750.371094 793.289062 751.082031 C 794.347656 751.789062 795.390625 752.523438 796.417969 753.285156 C 797.441406 754.046875 798.449219 754.832031 799.433594 755.640625 C 800.421875 756.449219 801.386719 757.28125 802.332031 758.140625 C 803.277344 758.996094 804.203125 759.875 805.105469 760.777344 C 806.007812 761.679688 806.886719 762.605469 807.742188 763.550781 C 808.601562 764.496094 809.433594 765.460938 810.242188 766.449219 C 811.054688 767.4375 811.839844 768.441406 812.597656 769.464844 C 813.359375 770.492188 814.09375 771.535156 814.800781 772.59375 C 815.511719 773.65625 816.195312 774.734375 816.847656 775.828125 C 817.503906 776.921875 818.132812 778.035156 818.734375 779.160156 C 819.335938 780.285156 819.910156 781.425781 820.457031 782.578125 C 821.003906 783.730469 821.519531 784.898438 822.007812 786.078125 C 822.496094 787.253906 822.957031 788.445312 823.386719 789.648438 C 823.816406 790.847656 824.214844 792.058594 824.585938 793.28125 C 824.957031 794.503906 825.296875 795.730469 825.605469 796.96875 C 825.917969 798.207031 826.195312 799.453125 826.445312 800.703125 C 826.695312 801.957031 826.910156 803.214844 827.097656 804.476562 C 827.285156 805.738281 827.441406 807.003906 827.566406 808.273438 C 827.691406 809.542969 827.785156 810.816406 827.847656 812.089844 C 827.910156 813.367188 827.941406 814.640625 827.941406 815.917969 Z M 827.941406 815.917969 " fill-opacity="1" fill-rule="nonzero"/><g clip-path="url(#85756369b4)"><path fill="#28434e" d="M 1059.296875 1099.886719 L 909.738281 1099.886719 C 916.351562 1089.59375 919.519531 1077.265625 918.597656 1064.910156 L 912.9375 988.640625 L 912.640625 984.414062 C 912.503906 966.207031 908.65625 948.433594 901.613281 932.042969 C 902.859375 932.449219 904.023438 933.125 905.027344 934.046875 C 911.367188 939.925781 918.519531 944.910156 926.292969 948.839844 C 938.703125 955.097656 952.683594 958.621094 967.503906 958.621094 L 967.828125 958.621094 C 991.808594 958.539062 1013.644531 949.246094 1029.957031 934.074219 C 1033.558594 930.742188 1039.058594 930.792969 1043.015625 933.722656 C 1056.5625 943.71875 1067.183594 957.429688 1073.386719 973.359375 C 1077.34375 983.464844 1079.511719 994.4375 1079.511719 1005.953125 L 1082.085938 1040.851562 L 1084.441406 1072.765625 C 1085.550781 1087.398438 1073.957031 1099.886719 1059.296875 1099.886719 Z M 1059.296875 1099.886719 " fill-opacity="1" fill-rule="nonzero"/></g><path fill="#28434e" d="M 1031.527344 866.773438 C 1031.527344 867.820312 1031.5 868.867188 1031.449219 869.914062 C 1031.398438 870.960938 1031.320312 872.003906 1031.21875 873.046875 C 1031.117188 874.089844 1030.988281 875.128906 1030.832031 876.167969 C 1030.679688 877.203125 1030.5 878.234375 1030.296875 879.261719 C 1030.09375 880.289062 1029.863281 881.3125 1029.609375 882.328125 C 1029.355469 883.34375 1029.074219 884.355469 1028.769531 885.355469 C 1028.464844 886.359375 1028.136719 887.355469 1027.785156 888.339844 C 1027.429688 889.328125 1027.054688 890.304688 1026.652344 891.273438 C 1026.253906 892.242188 1025.828125 893.199219 1025.378906 894.144531 C 1024.933594 895.09375 1024.460938 896.027344 1023.96875 896.953125 C 1023.472656 897.875 1022.957031 898.789062 1022.417969 899.6875 C 1021.878906 900.585938 1021.320312 901.46875 1020.738281 902.339844 C 1020.15625 903.210938 1019.550781 904.070312 1018.925781 904.910156 C 1018.304688 905.75 1017.660156 906.578125 1016.996094 907.386719 C 1016.328125 908.199219 1015.644531 908.992188 1014.941406 909.765625 C 1014.238281 910.542969 1013.515625 911.300781 1012.773438 912.042969 C 1012.035156 912.785156 1011.273438 913.507812 1010.5 914.210938 C 1009.722656 914.914062 1008.929688 915.597656 1008.121094 916.261719 C 1007.308594 916.925781 1006.484375 917.570312 1005.640625 918.195312 C 1004.800781 918.820312 1003.945312 919.421875 1003.074219 920.003906 C 1002.203125 920.585938 1001.316406 921.148438 1000.417969 921.6875 C 999.519531 922.226562 998.609375 922.742188 997.683594 923.234375 C 996.761719 923.730469 995.824219 924.199219 994.878906 924.648438 C 993.929688 925.097656 992.972656 925.519531 992.003906 925.921875 C 991.035156 926.324219 990.058594 926.699219 989.074219 927.050781 C 988.085938 927.40625 987.089844 927.734375 986.089844 928.039062 C 985.085938 928.34375 984.078125 928.621094 983.058594 928.875 C 982.042969 929.128906 981.023438 929.359375 979.992188 929.566406 C 978.964844 929.769531 977.933594 929.949219 976.898438 930.101562 C 975.863281 930.253906 974.820312 930.382812 973.777344 930.488281 C 972.738281 930.589844 971.691406 930.667969 970.644531 930.71875 C 969.597656 930.769531 968.550781 930.792969 967.503906 930.792969 C 966.457031 930.792969 965.410156 930.769531 964.363281 930.71875 C 963.316406 930.667969 962.269531 930.589844 961.230469 930.488281 C 960.1875 930.382812 959.144531 930.253906 958.109375 930.101562 C 957.074219 929.949219 956.042969 929.769531 955.011719 929.566406 C 953.984375 929.359375 952.964844 929.128906 951.949219 928.875 C 950.929688 928.621094 949.921875 928.34375 948.917969 928.039062 C 947.917969 927.734375 946.921875 927.40625 945.933594 927.050781 C 944.949219 926.699219 943.972656 926.324219 943.003906 925.921875 C 942.035156 925.519531 941.078125 925.097656 940.128906 924.648438 C 939.183594 924.199219 938.246094 923.730469 937.324219 923.234375 C 936.398438 922.742188 935.488281 922.226562 934.589844 921.6875 C 933.691406 921.148438 932.804688 920.585938 931.933594 920.003906 C 931.0625 919.421875 930.207031 918.820312 929.367188 918.195312 C 928.523438 917.570312 927.699219 916.925781 926.886719 916.261719 C 926.078125 915.597656 925.285156 914.914062 924.507812 914.210938 C 923.734375 913.507812 922.972656 912.785156 922.234375 912.042969 C 921.492188 911.300781 920.769531 910.542969 920.066406 909.765625 C 919.363281 908.992188 918.679688 908.199219 918.011719 907.386719 C 917.347656 906.578125 916.703125 905.75 916.082031 904.910156 C 915.457031 904.070312 914.851562 903.210938 914.269531 902.339844 C 913.6875 901.46875 913.128906 900.585938 912.589844 899.6875 C 912.050781 898.789062 911.535156 897.875 911.039062 896.953125 C 910.546875 896.027344 910.074219 895.09375 909.628906 894.144531 C 909.179688 893.199219 908.753906 892.242188 908.355469 891.273438 C 907.953125 890.304688 907.578125 889.328125 907.222656 888.339844 C 906.871094 887.355469 906.542969 886.359375 906.238281 885.355469 C 905.933594 884.355469 905.65625 883.34375 905.398438 882.328125 C 905.144531 881.3125 904.914062 880.289062 904.710938 879.261719 C 904.507812 878.234375 904.328125 877.203125 904.175781 876.167969 C 904.019531 875.128906 903.890625 874.089844 903.789062 873.046875 C 903.6875 872.003906 903.609375 870.960938 903.558594 869.914062 C 903.507812 868.867188 903.480469 867.820312 903.480469 866.773438 C 903.480469 865.722656 903.507812 864.675781 903.558594 863.628906 C 903.609375 862.585938 903.6875 861.539062 903.789062 860.496094 C 903.890625 859.453125 904.019531 858.414062 904.175781 857.378906 C 904.328125 856.339844 904.507812 855.308594 904.710938 854.28125 C 904.914062 853.253906 905.144531 852.230469 905.398438 851.214844 C 905.652344 850.199219 905.933594 849.191406 906.238281 848.1875 C 906.542969 847.183594 906.871094 846.191406 907.222656 845.203125 C 907.578125 844.214844 907.953125 843.238281 908.355469 842.273438 C 908.753906 841.304688 909.179688 840.347656 909.628906 839.398438 C 910.074219 838.453125 910.546875 837.515625 911.039062 836.59375 C 911.535156 835.667969 912.050781 834.757812 912.589844 833.859375 C 913.128906 832.957031 913.6875 832.074219 914.269531 831.203125 C 914.851562 830.332031 915.457031 829.476562 916.082031 828.632812 C 916.703125 827.792969 917.347656 826.964844 918.011719 826.15625 C 918.679688 825.347656 919.363281 824.554688 920.066406 823.777344 C 920.769531 823 921.492188 822.242188 922.234375 821.5 C 922.972656 820.761719 923.734375 820.039062 924.507812 819.335938 C 925.285156 818.628906 926.078125 817.945312 926.886719 817.28125 C 927.699219 816.617188 928.523438 815.972656 929.367188 815.347656 C 930.207031 814.722656 931.0625 814.121094 931.933594 813.539062 C 932.804688 812.957031 933.691406 812.394531 934.589844 811.859375 C 935.488281 811.320312 936.398438 810.804688 937.324219 810.308594 C 938.246094 809.816406 939.183594 809.34375 940.128906 808.894531 C 941.078125 808.449219 942.035156 808.023438 943.003906 807.621094 C 943.972656 807.222656 944.949219 806.84375 945.933594 806.492188 C 946.921875 806.136719 947.917969 805.808594 948.917969 805.507812 C 949.921875 805.203125 950.929688 804.921875 951.949219 804.667969 C 952.964844 804.414062 953.984375 804.183594 955.015625 803.980469 C 956.042969 803.773438 957.074219 803.597656 958.109375 803.441406 C 959.144531 803.289062 960.1875 803.160156 961.230469 803.058594 C 962.269531 802.953125 963.316406 802.878906 964.363281 802.828125 C 965.410156 802.773438 966.457031 802.75 967.503906 802.75 C 968.550781 802.75 969.597656 802.773438 970.644531 802.828125 C 971.691406 802.878906 972.738281 802.953125 973.777344 803.058594 C 974.820312 803.160156 975.863281 803.289062 976.898438 803.441406 C 977.933594 803.597656 978.964844 803.773438 979.992188 803.980469 C 981.023438 804.183594 982.042969 804.414062 983.058594 804.667969 C 984.078125 804.921875 985.085938 805.203125 986.089844 805.507812 C 987.089844 805.808594 988.085938 806.136719 989.074219 806.492188 C 990.058594 806.84375 991.035156 807.222656 992.003906 807.621094 C 992.972656 808.023438 993.929688 808.449219 994.878906 808.894531 C 995.824219 809.34375 996.761719 809.816406 997.683594 810.308594 C 998.609375 810.800781 999.519531 811.320312 1000.417969 811.859375 C 1001.316406 812.394531 1002.203125 812.957031 1003.074219 813.539062 C 1003.945312 814.121094 1004.800781 814.722656 1005.640625 815.347656 C 1006.484375 815.972656 1007.308594 816.617188 1008.121094 817.28125 C 1008.929688 817.945312 1009.722656 818.628906 1010.5 819.335938 C 1011.277344 820.039062 1012.035156 820.761719 1012.773438 821.5 C 1013.515625 822.242188 1014.238281 823 1014.941406 823.777344 C 1015.644531 824.554688 1016.328125 825.347656 1016.996094 826.15625 C 1017.660156 826.964844 1018.304688 827.792969 1018.925781 828.632812 C 1019.550781 829.476562 1020.15625 830.332031 1020.738281 831.203125 C 1021.320312 832.074219 1021.878906 832.957031 1022.417969 833.859375 C 1022.957031 834.757812 1023.472656 835.667969 1023.96875 836.59375 C 1024.460938 837.515625 1024.933594 838.453125 1025.378906 839.398438 C 1025.828125 840.347656 1026.253906 841.304688 1026.652344 842.269531 C 1027.054688 843.238281 1027.429688 844.214844 1027.785156 845.203125 C 1028.136719 846.191406 1028.464844 847.183594 1028.769531 848.1875 C 1029.074219 849.191406 1029.355469 850.199219 1029.609375 851.214844 C 1029.863281 852.230469 1030.09375 853.253906 1030.296875 854.28125 C 1030.5 855.308594 1030.679688 856.339844 1030.832031 857.378906 C 1030.988281 858.414062 1031.117188 859.453125 1031.21875 860.496094 C 1031.320312 861.539062 1031.398438 862.585938 1031.449219 863.628906 C 1031.5 864.675781 1031.527344 865.722656 1031.527344 866.773438 Z M 1031.527344 866.773438 " fill-opacity="1" fill-rule="nonzero"/><g clip-path="url(#8a0cfce1ba)"><path fill="#28434e" d="M 590.195312 1099.886719 L 440.636719 1099.886719 C 425.953125 1099.886719 414.355469 1087.425781 415.464844 1072.792969 L 417.824219 1040.878906 L 420.398438 1005.980469 C 420.398438 994.492188 422.566406 983.492188 426.492188 973.386719 C 432.699219 957.457031 443.34375 943.746094 456.890625 933.746094 C 460.820312 930.847656 466.347656 930.769531 469.953125 934.101562 C 486.261719 949.273438 508.101562 958.566406 532.078125 958.648438 L 532.402344 958.648438 C 547.195312 958.648438 561.203125 955.125 573.613281 948.867188 C 581.414062 944.964844 588.570312 939.953125 594.882812 934.074219 C 595.882812 933.152344 597.050781 932.476562 598.296875 932.066406 C 591.25 948.460938 587.402344 966.234375 587.269531 984.441406 L 586.96875 988.667969 L 581.308594 1064.9375 C 580.414062 1077.265625 583.609375 1089.566406 590.195312 1099.886719 Z M 590.195312 1099.886719 " fill-opacity="1" fill-rule="nonzero"/></g><path fill="#28434e" d="M 596.480469 866.773438 C 596.480469 867.820312 596.453125 868.867188 596.402344 869.914062 C 596.351562 870.960938 596.273438 872.003906 596.171875 873.046875 C 596.070312 874.089844 595.941406 875.128906 595.789062 876.167969 C 595.632812 877.203125 595.453125 878.234375 595.25 879.261719 C 595.046875 880.289062 594.816406 881.3125 594.5625 882.328125 C 594.308594 883.34375 594.027344 884.355469 593.722656 885.355469 C 593.417969 886.359375 593.089844 887.355469 592.738281 888.339844 C 592.382812 889.328125 592.007812 890.304688 591.605469 891.273438 C 591.207031 892.242188 590.78125 893.199219 590.332031 894.144531 C 589.886719 895.09375 589.414062 896.027344 588.921875 896.953125 C 588.425781 897.875 587.910156 898.789062 587.371094 899.6875 C 586.832031 900.585938 586.273438 901.46875 585.691406 902.339844 C 585.109375 903.210938 584.503906 904.070312 583.882812 904.910156 C 583.257812 905.75 582.613281 906.578125 581.949219 907.386719 C 581.28125 908.199219 580.597656 908.992188 579.894531 909.765625 C 579.191406 910.542969 578.46875 911.300781 577.726562 912.042969 C 576.988281 912.785156 576.230469 913.507812 575.453125 914.210938 C 574.675781 914.914062 573.882812 915.597656 573.074219 916.261719 C 572.261719 916.925781 571.4375 917.570312 570.59375 918.195312 C 569.753906 918.820312 568.898438 919.421875 568.027344 920.003906 C 567.15625 920.585938 566.269531 921.148438 565.371094 921.6875 C 564.472656 922.226562 563.5625 922.742188 562.636719 923.234375 C 561.714844 923.730469 560.777344 924.199219 559.832031 924.648438 C 558.882812 925.097656 557.925781 925.519531 556.957031 925.921875 C 555.988281 926.324219 555.011719 926.699219 554.027344 927.050781 C 553.039062 927.40625 552.042969 927.734375 551.042969 928.039062 C 550.039062 928.34375 549.03125 928.621094 548.011719 928.875 C 546.996094 929.128906 545.976562 929.359375 544.949219 929.566406 C 543.917969 929.769531 542.886719 929.949219 541.851562 930.101562 C 540.816406 930.253906 539.777344 930.382812 538.734375 930.488281 C 537.691406 930.589844 536.644531 930.667969 535.597656 930.71875 C 534.550781 930.769531 533.503906 930.792969 532.457031 930.792969 C 531.410156 930.792969 530.363281 930.769531 529.316406 930.71875 C 528.269531 930.667969 527.226562 930.589844 526.183594 930.488281 C 525.140625 930.382812 524.101562 930.253906 523.0625 930.101562 C 522.027344 929.949219 520.996094 929.769531 519.96875 929.566406 C 518.9375 929.359375 517.917969 929.128906 516.902344 928.875 C 515.882812 928.621094 514.875 928.34375 513.871094 928.039062 C 512.871094 927.734375 511.875 927.40625 510.886719 927.050781 C 509.902344 926.699219 508.925781 926.324219 507.957031 925.921875 C 506.988281 925.519531 506.03125 925.097656 505.085938 924.648438 C 504.136719 924.199219 503.203125 923.730469 502.277344 923.234375 C 501.351562 922.742188 500.441406 922.226562 499.542969 921.6875 C 498.644531 921.148438 497.757812 920.585938 496.886719 920.003906 C 496.015625 919.421875 495.160156 918.820312 494.320312 918.195312 C 493.476562 917.570312 492.652344 916.925781 491.839844 916.261719 C 491.03125 915.597656 490.238281 914.914062 489.460938 914.210938 C 488.6875 913.507812 487.925781 912.785156 487.1875 912.042969 C 486.445312 911.300781 485.722656 910.542969 485.019531 909.765625 C 484.316406 908.992188 483.632812 908.199219 482.96875 907.386719 C 482.300781 906.578125 481.65625 905.75 481.035156 904.910156 C 480.410156 904.070312 479.804688 903.210938 479.222656 902.339844 C 478.640625 901.46875 478.082031 900.585938 477.542969 899.6875 C 477.003906 898.789062 476.488281 897.875 475.996094 896.953125 C 475.5 896.027344 475.03125 895.09375 474.582031 894.144531 C 474.132812 893.199219 473.707031 892.242188 473.308594 891.273438 C 472.90625 890.304688 472.53125 889.328125 472.175781 888.339844 C 471.824219 887.355469 471.496094 886.359375 471.191406 885.355469 C 470.886719 884.355469 470.609375 883.34375 470.351562 882.328125 C 470.097656 881.3125 469.867188 880.289062 469.664062 879.261719 C 469.460938 878.234375 469.28125 877.203125 469.128906 876.167969 C 468.972656 875.128906 468.84375 874.089844 468.742188 873.046875 C 468.640625 872.003906 468.5625 870.960938 468.511719 869.914062 C 468.460938 868.867188 468.433594 867.820312 468.433594 866.773438 C 468.433594 865.722656 468.460938 864.675781 468.511719 863.628906 C 468.5625 862.585938 468.640625 861.539062 468.742188 860.496094 C 468.84375 859.453125 468.972656 858.414062 469.128906 857.378906 C 469.28125 856.339844 469.460938 855.308594 469.664062 854.28125 C 469.867188 853.253906 470.097656 852.230469 470.351562 851.214844 C 470.609375 850.199219 470.886719 849.191406 471.191406 848.1875 C 471.496094 847.183594 471.824219 846.191406 472.175781 845.203125 C 472.53125 844.214844 472.90625 843.238281 473.308594 842.273438 C 473.707031 841.304688 474.132812 840.347656 474.582031 839.398438 C 475.03125 838.453125 475.5 837.515625 475.996094 836.59375 C 476.488281 835.667969 477.003906 834.757812 477.542969 833.859375 C 478.082031 832.957031 478.640625 832.074219 479.222656 831.203125 C 479.804688 830.332031 480.410156 829.476562 481.035156 828.632812 C 481.65625 827.792969 482.300781 826.964844 482.96875 826.15625 C 483.632812 825.347656 484.316406 824.554688 485.019531 823.777344 C 485.722656 823 486.445312 822.242188 487.1875 821.5 C 487.925781 820.761719 488.6875 820.039062 489.460938 819.335938 C 490.238281 818.628906 491.03125 817.945312 491.839844 817.28125 C 492.652344 816.617188 493.476562 815.972656 494.320312 815.347656 C 495.160156 814.722656 496.015625 814.121094 496.886719 813.539062 C 497.757812 812.957031 498.644531 812.394531 499.542969 811.859375 C 500.441406 811.320312 501.351562 810.804688 502.277344 810.308594 C 503.203125 809.816406 504.136719 809.34375 505.085938 808.894531 C 506.03125 808.449219 506.988281 808.023438 507.957031 807.621094 C 508.925781 807.222656 509.902344 806.84375 510.886719 806.492188 C 511.875 806.136719 512.871094 805.808594 513.871094 805.507812 C 514.875 805.203125 515.882812 804.921875 516.902344 804.667969 C 517.917969 804.414062 518.9375 804.183594 519.96875 803.980469 C 520.996094 803.773438 522.027344 803.597656 523.0625 803.441406 C 524.101562 803.289062 525.140625 803.160156 526.183594 803.058594 C 527.226562 802.953125 528.269531 802.878906 529.316406 802.828125 C 530.363281 802.773438 531.410156 802.75 532.457031 802.75 C 533.503906 802.75 534.550781 802.773438 535.597656 802.828125 C 536.644531 802.878906 537.691406 802.953125 538.734375 803.058594 C 539.777344 803.160156 540.816406 803.289062 541.851562 803.441406 C 542.886719 803.597656 543.917969 803.773438 544.949219 803.980469 C 545.976562 804.183594 546.996094 804.414062 548.011719 804.667969 C 549.03125 804.921875 550.039062 805.203125 551.042969 805.507812 C 552.042969 805.808594 553.039062 806.136719 554.027344 806.492188 C 555.011719 806.84375 555.988281 807.222656 556.957031 807.621094 C 557.925781 808.023438 558.882812 808.449219 559.832031 808.894531 C 560.777344 809.34375 561.714844 809.816406 562.636719 810.308594 C 563.5625 810.800781 564.472656 811.320312 565.371094 811.859375 C 566.269531 812.394531 567.15625 812.957031 568.027344 813.539062 C 568.898438 814.121094 569.753906 814.722656 570.59375 815.347656 C 571.4375 815.972656 572.261719 816.617188 573.074219 817.28125 C 573.882812 817.945312 574.675781 818.628906 575.453125 819.335938 C 576.230469 820.039062 576.988281 820.761719 577.726562 821.5 C 578.46875 822.242188 579.191406 823 579.894531 823.777344 C 580.597656 824.554688 581.28125 825.347656 581.949219 826.15625 C 582.613281 826.964844 583.257812 827.792969 583.882812 828.632812 C 584.503906 829.476562 585.109375 830.332031 585.691406 831.203125 C 586.273438 832.074219 586.832031 832.957031 587.371094 833.859375 C 587.910156 834.757812 588.425781 835.667969 588.921875 836.59375 C 589.414062 837.515625 589.886719 838.453125 590.332031 839.398438 C 590.78125 840.347656 591.207031 841.304688 591.605469 842.269531 C 592.007812 843.238281 592.382812 844.214844 592.738281 845.203125 C 593.089844 846.191406 593.417969 847.183594 593.722656 848.1875 C 594.027344 849.191406 594.308594 850.199219 594.5625 851.214844 C 594.816406 852.230469 595.046875 853.253906 595.25 854.28125 C 595.453125 855.308594 595.632812 856.339844 595.789062 857.378906 C 595.941406 858.414062 596.070312 859.453125 596.171875 860.496094 C 596.273438 861.539062 596.351562 862.585938 596.402344 863.628906 C 596.453125 864.675781 596.480469 865.722656 596.480469 866.773438 Z M 596.480469 866.773438 " fill-opacity="1" fill-rule="nonzero"/><g clip-path="url(#272e49a271)"><path fill="#28434e" d="M 1122.941406 644.847656 C 1101.511719 595.480469 1070.921875 551.425781 1032.015625 513.929688 C 955.988281 440.613281 855.957031 400.214844 750.320312 400.132812 C 750.210938 400.132812 750.101562 400.105469 749.96875 400.105469 C 749.832031 400.105469 749.722656 400.132812 749.613281 400.132812 C 643.976562 400.214844 543.945312 440.640625 467.917969 513.929688 C 429.011719 551.425781 398.425781 595.480469 376.992188 644.871094 C 354.800781 695.972656 343.558594 750.375 343.558594 806.515625 C 343.558594 862.707031 354.800781 917.085938 376.992188 968.210938 C 378.671875 972.085938 380.40625 975.933594 382.195312 979.726562 C 383.683594 972.464844 385.769531 965.394531 388.480469 958.429688 C 392.949219 946.996094 398.992188 936.269531 406.390625 926.59375 C 395.417969 895.113281 388.804688 861.949219 386.855469 827.863281 L 435.027344 827.863281 C 441.773438 811.039062 452.746094 796.355469 466.644531 785.164062 L 386.910156 785.164062 C 391.757812 700.253906 425.519531 621.191406 483.554688 558.929688 C 503.007812 575.835938 523.949219 590.820312 546.167969 603.71875 C 530.179688 652.351562 520.15625 706.484375 516.769531 763.109375 C 521.890625 762.351562 527.121094 761.945312 532.457031 761.945312 C 541.777344 761.945312 550.773438 763.164062 559.390625 765.46875 C 562.421875 714.992188 571.011719 666.847656 584.667969 623.414062 C 629.914062 643.519531 678.953125 655.277344 728.644531 657.90625 L 728.644531 699.0625 C 735.582031 697.789062 742.707031 697.136719 749.996094 697.136719 C 757.28125 697.136719 764.40625 697.789062 771.34375 699.0625 L 771.34375 657.878906 C 821.0625 655.25 870.074219 643.492188 915.320312 623.386719 C 928.949219 666.820312 937.566406 714.9375 940.574219 765.441406 C 949.1875 763.164062 958.210938 761.917969 967.53125 761.917969 C 972.867188 761.917969 978.097656 762.296875 983.21875 763.082031 C 979.832031 706.457031 969.78125 652.324219 953.792969 603.691406 C 976.011719 590.792969 996.980469 575.8125 1016.4375 558.902344 C 1074.46875 621.164062 1108.230469 700.226562 1113.105469 785.136719 L 1033.289062 785.136719 C 1047.1875 796.328125 1058.160156 811.011719 1064.90625 827.839844 L 1113.105469 827.839844 C 1111.15625 861.921875 1104.542969 895.085938 1093.542969 926.566406 C 1100.96875 936.269531 1107.011719 946.996094 1111.507812 958.484375 C 1114.21875 965.394531 1116.304688 972.464844 1117.792969 979.699219 C 1119.582031 975.90625 1121.316406 972.058594 1122.996094 968.183594 C 1145.1875 917.058594 1156.429688 862.679688 1156.429688 806.488281 C 1156.375 750.375 1145.132812 695.972656 1122.941406 644.847656 Z M 580.550781 523.925781 C 573.667969 536.363281 567.300781 549.476562 561.449219 563.15625 C 544.976562 553.132812 529.289062 541.835938 514.574219 529.316406 C 546.273438 502.304688 581.984375 481.253906 620.1875 466.648438 C 605.9375 482.933594 592.632812 502.0625 580.550781 523.925781 Z M 728.617188 615.152344 C 683.53125 612.578125 640.183594 601.875 599.296875 583.207031 C 604.960938 569.6875 611.164062 556.761719 617.910156 544.597656 C 648.90625 488.59375 687.597656 454.105469 728.617188 445.164062 Z M 771.316406 615.152344 L 771.316406 445.164062 C 812.335938 454.105469 851.027344 488.59375 882.023438 544.597656 C 888.742188 556.761719 894.972656 569.6875 900.609375 583.207031 C 859.75 601.875 816.429688 612.578125 771.316406 615.152344 Z M 938.488281 563.128906 C 932.632812 549.449219 926.265625 536.335938 919.386719 523.898438 C 907.273438 502.0625 894 482.933594 879.746094 466.59375 C 917.976562 481.171875 953.660156 502.277344 985.386719 529.261719 C 970.648438 541.808594 954.960938 553.132812 938.488281 563.128906 Z M 938.488281 563.128906 " fill-opacity="1" fill-rule="nonzero"/></g></svg>