<svg xmlns="http://www.w3.org/2000/svg" xmlns:xlink="http://www.w3.org/1999/xlink" width="2000" zoomAndPan="magnify" viewBox="0 0 1500 1499.999933" height="2000" preserveAspectRatio="xMidYMid meet" version="1.0"><defs><clipPath id="29035dea21"><path d="M 432.746094 441.398438 L 1067.246094 441.398438 L 1067.246094 1058.648438 L 432.746094 1058.648438 Z M 432.746094 441.398438 " clip-rule="nonzero"/></clipPath></defs><g clip-path="url(#29035dea21)"><path fill="#4b9960" d="M 1056.890625 981.496094 L 989.96875 981.496094 L 989.96875 623.015625 C 989.96875 617.386719 985.417969 612.820312 979.769531 612.820312 L 873.503906 612.820312 L 873.503906 585.222656 C 873.503906 579.59375 868.953125 575.027344 863.304688 575.027344 L 636.511719 575.027344 C 630.882812 575.027344 626.316406 579.578125 626.316406 585.222656 L 626.316406 612.800781 C 597.945312 612.800781 520.046875 612.800781 520.046875 612.800781 C 514.417969 612.800781 509.851562 617.355469 509.851562 623 L 509.851562 981.480469 L 442.945312 981.480469 C 437.3125 981.480469 432.746094 986.03125 432.746094 991.679688 L 432.746094 1048.054688 C 432.746094 1053.6875 437.296875 1058.253906 442.945312 1058.253906 L 1056.890625 1058.253906 C 1062.519531 1058.253906 1067.089844 1053.574219 1067.089844 1048.054688 L 1067.089844 991.679688 C 1067.089844 986.050781 1062.535156 981.496094 1056.890625 981.496094 Z M 969.574219 633.195312 L 969.574219 981.496094 L 904.695312 981.496094 L 904.695312 823.308594 C 904.695312 817.679688 900.144531 813.113281 894.5 813.113281 L 873.503906 813.113281 L 873.503906 633.195312 Z M 636.511719 833.488281 L 884.175781 833.488281 L 884.175781 981.371094 L 853.710938 981.371094 L 853.710938 972.253906 C 853.710938 943.707031 842.070312 917.792969 823.246094 898.96875 C 804.421875 880.144531 778.511719 868.503906 749.964844 868.503906 C 721.417969 868.503906 695.507812 880.144531 676.683594 898.96875 C 657.859375 917.792969 646.21875 943.707031 646.21875 972.253906 L 646.21875 981.371094 L 615.515625 981.371094 L 615.515625 833.488281 Z M 833.332031 981.371094 L 666.628906 981.371094 L 666.628906 972.253906 C 666.628906 949.335938 675.984375 928.484375 691.097656 913.371094 C 706.210938 898.257812 727.082031 888.898438 749.980469 888.898438 C 772.898438 888.898438 793.75 898.257812 808.863281 913.371094 C 823.976562 928.484375 833.332031 949.351562 833.332031 972.253906 Z M 646.710938 595.421875 L 853.125 595.421875 L 853.125 813.113281 L 646.710938 813.113281 Z M 530.261719 633.195312 L 626.332031 633.195312 L 626.332031 813.097656 L 605.460938 813.097656 C 599.832031 813.097656 595.265625 817.648438 595.265625 823.292969 L 595.265625 981.480469 L 530.261719 981.480469 Z M 1046.695312 1037.859375 L 453.140625 1037.859375 L 453.140625 1001.875 L 1046.710938 1001.875 L 1046.710938 1037.859375 Z M 824.105469 496.71875 L 841.007812 512.195312 L 837.042969 534.015625 C 836.570312 537.140625 837.042969 540.011719 838.25 542.535156 C 839.199219 544.578125 840.769531 546.371094 842.5625 547.6875 C 844.242188 548.894531 846.273438 549.84375 848.445312 550.207031 C 851.332031 550.8125 854.441406 550.445312 857.328125 549.003906 L 878.910156 538.332031 L 900.496094 549.003906 C 903.378906 550.445312 906.488281 550.683594 909.375 550.207031 C 911.53125 549.84375 913.578125 549.003906 915.257812 547.6875 C 917.050781 546.371094 918.492188 544.691406 919.570312 542.644531 C 920.886719 540.121094 921.363281 537.253906 920.777344 534.128906 L 916.8125 512.308594 L 933.71875 496.828125 C 936.351562 494.546875 937.683594 491.546875 938.160156 488.441406 C 938.394531 486.394531 938.285156 484.363281 937.683594 482.445312 C 937.078125 480.527344 936.128906 478.84375 934.683594 477.292969 C 932.527344 474.898438 929.640625 473.214844 926.042969 472.738281 L 902.046875 469.503906 L 891.375 449.332031 C 889.933594 446.699219 887.902344 444.65625 885.746094 443.449219 C 883.589844 442.371094 881.304688 441.769531 879.023438 441.769531 C 876.738281 441.769531 874.46875 442.371094 872.296875 443.449219 C 869.902344 444.765625 867.859375 446.683594 866.414062 449.332031 L 855.742188 469.488281 L 831.746094 472.722656 C 828.148438 473.199219 825.152344 475.007812 823.105469 477.277344 C 821.660156 478.828125 820.710938 480.636719 820.109375 482.429688 C 819.503906 484.347656 819.394531 486.394531 819.632812 488.425781 C 820.140625 491.4375 821.457031 494.433594 824.105469 496.71875 Z M 861.402344 489.28125 C 863.6875 488.914062 865.714844 488.074219 867.523438 486.886719 C 869.441406 485.570312 870.996094 483.886719 872.074219 481.84375 L 878.800781 469.011719 L 885.523438 481.84375 C 886.601562 483.886719 888.15625 485.554688 889.835938 486.648438 C 891.628906 487.964844 893.675781 488.695312 895.832031 489.042969 L 909.628906 490.960938 L 900.160156 499.605469 C 898.371094 501.285156 897.039062 503.203125 896.324219 505.359375 C 895.609375 507.519531 895.355469 509.914062 895.847656 512.324219 L 898.242188 525.28125 L 884.9375 518.683594 C 882.890625 517.714844 880.734375 517.238281 878.578125 517.238281 C 876.421875 517.238281 874.265625 517.839844 872.21875 518.792969 L 858.914062 525.390625 L 861.308594 512.433594 C 861.785156 510.039062 861.546875 507.628906 860.832031 505.472656 C 860.117188 503.425781 858.785156 501.394531 857.121094 499.84375 L 847.652344 491.199219 Z M 670.101562 681.535156 C 670.101562 675.902344 674.652344 671.335938 680.296875 671.335938 L 819.550781 671.335938 C 825.183594 671.335938 829.75 675.886719 829.75 681.535156 C 829.75 687.179688 825.199219 691.730469 819.550781 691.730469 L 680.296875 691.730469 C 674.652344 691.730469 670.101562 687.179688 670.101562 681.535156 Z M 670.101562 727 C 670.101562 721.371094 674.652344 716.804688 680.296875 716.804688 L 819.550781 716.804688 C 825.183594 716.804688 829.75 721.355469 829.75 727 C 829.75 732.644531 825.199219 737.195312 819.550781 737.195312 L 680.296875 737.195312 C 674.652344 737.179688 670.101562 732.628906 670.101562 727 Z M 670.101562 772.324219 C 670.101562 766.695312 674.652344 762.125 680.296875 762.125 L 819.550781 762.125 C 825.183594 762.125 829.75 766.679688 829.75 772.324219 C 829.75 777.96875 825.199219 782.519531 819.550781 782.519531 L 680.296875 782.519531 C 674.652344 782.519531 670.101562 777.96875 670.101562 772.324219 Z M 670.101562 636.195312 C 670.101562 630.5625 674.652344 625.996094 680.296875 625.996094 L 819.550781 625.996094 C 825.183594 625.996094 829.75 630.546875 829.75 636.195312 C 829.75 641.839844 825.199219 646.390625 819.550781 646.390625 L 680.296875 646.390625 C 674.652344 646.390625 670.101562 641.839844 670.101562 636.195312 Z M 547.640625 681.535156 C 547.640625 675.902344 552.195312 671.335938 557.839844 671.335938 L 592.140625 671.335938 C 597.769531 671.335938 602.339844 675.886719 602.339844 681.535156 C 602.339844 687.179688 597.785156 691.730469 592.140625 691.730469 L 557.839844 691.730469 C 552.210938 691.730469 547.640625 687.179688 547.640625 681.535156 Z M 592.140625 782.519531 L 557.839844 782.519531 C 552.210938 782.519531 547.640625 777.96875 547.640625 772.324219 C 547.640625 766.679688 552.195312 762.125 557.839844 762.125 L 592.140625 762.125 C 597.769531 762.125 602.339844 766.679688 602.339844 772.324219 C 602.339844 777.96875 597.769531 782.519531 592.140625 782.519531 Z M 547.640625 727 C 547.640625 721.371094 552.195312 716.804688 557.839844 716.804688 L 592.140625 716.804688 C 597.769531 716.804688 602.339844 721.355469 602.339844 727 C 602.339844 732.644531 597.785156 737.195312 592.140625 737.195312 L 557.839844 737.195312 C 552.210938 737.179688 547.640625 732.628906 547.640625 727 Z M 897.496094 772.324219 C 897.496094 766.695312 902.046875 762.125 907.695312 762.125 L 941.996094 762.125 C 947.625 762.125 952.191406 766.679688 952.191406 772.324219 C 952.191406 777.96875 947.640625 782.519531 941.996094 782.519531 L 907.695312 782.519531 C 902.0625 782.519531 897.496094 777.96875 897.496094 772.324219 Z M 897.496094 727 C 897.496094 721.371094 902.046875 716.804688 907.695312 716.804688 L 941.996094 716.804688 C 947.625 716.804688 952.191406 721.355469 952.191406 727 C 952.191406 732.644531 947.640625 737.195312 941.996094 737.195312 L 907.695312 737.195312 C 902.0625 737.179688 897.496094 732.628906 897.496094 727 Z M 897.496094 681.535156 C 897.496094 675.902344 902.046875 671.335938 907.695312 671.335938 L 941.996094 671.335938 C 947.625 671.335938 952.191406 675.886719 952.191406 681.535156 C 952.191406 687.179688 947.640625 691.730469 941.996094 691.730469 L 907.695312 691.730469 C 902.0625 691.730469 897.496094 687.179688 897.496094 681.535156 Z M 695.175781 496.71875 L 712.078125 512.195312 L 708.113281 534.015625 C 707.640625 537.140625 708.113281 540.011719 709.320312 542.535156 C 710.269531 544.578125 711.839844 546.371094 713.632812 547.6875 C 715.3125 548.894531 717.34375 549.84375 719.515625 550.207031 C 722.402344 550.8125 725.511719 550.445312 728.398438 549.003906 L 749.980469 538.332031 L 771.566406 549.003906 C 774.449219 550.445312 777.558594 550.683594 780.445312 550.207031 C 782.601562 549.84375 784.648438 549.003906 786.328125 547.6875 C 788.121094 546.371094 789.691406 544.691406 790.640625 542.644531 C 791.957031 540.121094 792.433594 537.253906 791.847656 534.128906 L 787.882812 512.308594 L 804.789062 496.828125 C 807.421875 494.546875 808.753906 491.546875 809.230469 488.441406 C 809.464844 486.394531 809.355469 484.363281 808.753906 482.445312 C 808.148438 480.527344 807.199219 478.84375 805.753906 477.292969 C 803.597656 474.898438 800.710938 473.214844 797.113281 472.738281 L 773.117188 469.503906 L 762.445312 449.332031 C 761.128906 446.699219 759.082031 444.65625 756.816406 443.449219 C 754.660156 442.371094 752.375 441.769531 750.09375 441.769531 C 747.808594 441.769531 745.539062 442.371094 743.367188 443.449219 C 740.972656 444.765625 738.925781 446.683594 737.484375 449.332031 L 726.8125 469.488281 L 702.816406 472.722656 C 699.21875 473.199219 696.21875 475.007812 694.175781 477.277344 C 692.730469 478.828125 691.78125 480.636719 691.175781 482.429688 C 690.574219 484.347656 690.464844 486.394531 690.703125 488.425781 C 691.210938 491.4375 692.527344 494.433594 695.175781 496.71875 Z M 732.472656 489.28125 C 734.757812 488.914062 736.785156 488.074219 738.59375 486.886719 C 740.511719 485.570312 742.066406 483.886719 743.144531 481.84375 L 749.871094 469.011719 L 756.59375 481.84375 C 757.800781 483.886719 759.351562 485.554688 760.90625 486.648438 C 762.699219 487.964844 764.746094 488.695312 766.902344 489.042969 L 780.699219 490.960938 L 771.230469 499.605469 C 769.4375 501.285156 768.105469 503.203125 767.394531 505.359375 C 766.679688 507.519531 766.425781 509.914062 766.917969 512.324219 L 769.3125 525.28125 L 756.007812 518.683594 C 753.960938 517.714844 751.804688 517.238281 749.648438 517.238281 C 747.492188 517.238281 745.335938 517.839844 743.289062 518.792969 L 729.984375 525.390625 L 732.378906 512.433594 C 732.855469 510.039062 732.617188 507.628906 731.902344 505.472656 C 731.1875 503.425781 729.855469 501.394531 728.191406 499.84375 L 718.722656 491.199219 Z M 952.90625 496.71875 L 969.8125 512.195312 L 965.847656 534.015625 C 965.371094 537.140625 965.847656 540.011719 967.050781 542.535156 C 968.003906 544.578125 969.574219 546.371094 971.367188 547.6875 C 973.046875 548.894531 975.078125 549.84375 977.25 550.207031 C 980.136719 550.8125 983.246094 550.445312 986.128906 549.003906 L 1007.714844 538.332031 L 1029.296875 549.003906 C 1032.183594 550.445312 1035.292969 550.683594 1038.179688 550.207031 C 1040.335938 549.84375 1042.378906 549.003906 1044.0625 547.6875 C 1045.855469 546.371094 1047.296875 544.691406 1048.375 542.644531 C 1049.691406 540.121094 1050.167969 537.253906 1049.582031 534.128906 L 1045.617188 512.308594 L 1062.519531 496.828125 C 1065.152344 494.546875 1066.484375 491.546875 1066.960938 488.441406 C 1067.199219 486.394531 1067.089844 484.363281 1066.484375 482.445312 C 1065.882812 480.527344 1064.929688 478.84375 1063.488281 477.292969 C 1061.332031 474.898438 1058.445312 473.214844 1054.84375 472.738281 L 1030.851562 469.503906 L 1020.179688 449.347656 C 1018.734375 446.714844 1016.707031 444.671875 1014.550781 443.464844 C 1012.390625 442.386719 1010.109375 441.785156 1007.824219 441.785156 C 1005.542969 441.785156 1003.273438 442.386719 1001.101562 443.464844 C 998.707031 444.78125 996.660156 446.699219 995.21875 449.347656 L 984.542969 469.503906 L 960.550781 472.738281 C 956.949219 473.214844 953.953125 475.023438 951.90625 477.292969 C 950.464844 478.84375 949.511719 480.652344 948.910156 482.445312 C 948.308594 484.363281 948.195312 486.410156 948.433594 488.441406 C 948.957031 491.4375 950.273438 494.433594 952.90625 496.71875 Z M 990.207031 489.28125 C 992.488281 488.914062 994.519531 488.074219 996.328125 486.886719 C 998.246094 485.570312 999.800781 483.886719 1000.878906 481.84375 L 1007.601562 469.011719 L 1014.328125 481.84375 C 1015.40625 483.886719 1016.960938 485.554688 1018.640625 486.648438 C 1020.433594 487.964844 1022.476562 488.695312 1024.636719 489.042969 L 1038.433594 490.960938 L 1028.964844 499.605469 C 1027.171875 501.285156 1025.839844 503.203125 1025.125 505.359375 C 1024.414062 507.519531 1024.160156 509.914062 1024.652344 512.324219 L 1027.046875 525.28125 L 1013.738281 518.683594 C 1011.695312 517.714844 1009.539062 517.238281 1007.378906 517.238281 C 1005.222656 517.238281 1003.066406 517.839844 1001.023438 518.792969 L 987.714844 525.390625 L 990.109375 512.433594 C 990.585938 510.039062 990.347656 507.628906 989.636719 505.472656 C 988.921875 503.425781 987.589844 501.394531 985.925781 499.84375 L 976.457031 491.199219 Z M 566.355469 496.589844 L 583.261719 512.070312 L 579.296875 533.890625 C 578.691406 537.015625 579.296875 539.886719 580.5 542.40625 C 581.578125 544.453125 583.023438 546.246094 584.8125 547.5625 C 586.496094 548.765625 588.523438 549.71875 590.699219 550.082031 C 593.457031 550.683594 596.582031 550.320312 599.578125 548.875 L 621.164062 538.203125 L 642.746094 548.875 C 645.632812 550.320312 648.738281 550.558594 651.625 550.082031 C 653.78125 549.71875 655.828125 548.765625 657.511719 547.5625 C 659.300781 546.117188 660.871094 544.4375 661.824219 542.40625 C 663.027344 539.886719 663.617188 537.015625 663.027344 533.890625 L 659.0625 512.070312 L 676.097656 496.589844 C 678.730469 494.308594 680.171875 491.308594 680.535156 488.3125 C 680.773438 486.265625 680.664062 484.238281 680.0625 482.320312 C 679.457031 480.527344 678.507812 478.71875 677.0625 477.164062 C 675.019531 474.882812 672.019531 473.199219 668.421875 472.722656 L 644.425781 469.488281 L 633.753906 449.332031 C 632.4375 446.699219 630.28125 444.78125 627.871094 443.449219 C 625.714844 442.371094 623.429688 441.769531 621.144531 441.769531 C 618.863281 441.769531 616.59375 442.371094 614.421875 443.449219 C 612.027344 444.765625 609.980469 446.683594 608.539062 449.332031 L 597.867188 469.488281 L 574 472.613281 C 570.398438 473.089844 567.527344 474.769531 565.355469 477.054688 C 563.914062 478.609375 562.960938 480.289062 562.359375 482.207031 C 561.757812 484.125 561.644531 486.171875 561.882812 488.203125 C 562.28125 491.308594 563.722656 494.324219 566.355469 496.589844 Z M 603.78125 489.152344 C 605.9375 488.914062 607.984375 488.074219 609.777344 486.871094 C 611.695312 485.664062 613.25 483.871094 614.328125 481.828125 L 621.050781 468.996094 L 627.519531 481.953125 C 628.601562 484 630.152344 485.664062 632.074219 486.996094 C 633.863281 488.203125 636.039062 489.042969 638.195312 489.390625 L 651.992188 491.308594 L 642.523438 499.953125 C 640.84375 501.507812 639.527344 503.425781 638.8125 505.582031 C 638.097656 507.738281 637.859375 510.132812 638.335938 512.542969 L 640.730469 525.5 L 627.425781 518.902344 C 625.378906 517.824219 623.222656 517.351562 621.066406 517.351562 C 618.910156 517.351562 616.753906 517.824219 614.707031 518.792969 L 601.402344 525.390625 L 603.796875 512.433594 C 604.273438 510.039062 604.035156 507.628906 603.320312 505.472656 C 602.480469 503.316406 601.277344 501.269531 599.484375 499.714844 L 590.015625 491.074219 Z M 437.425781 496.589844 L 454.332031 512.070312 L 450.367188 533.890625 C 449.761719 537.015625 450.367188 539.886719 451.570312 542.40625 C 452.648438 544.453125 454.09375 546.246094 455.882812 547.5625 C 457.566406 548.765625 459.59375 549.71875 461.769531 550.082031 C 464.527344 550.683594 467.652344 550.320312 470.648438 548.875 L 492.230469 538.203125 L 513.816406 548.875 C 516.703125 550.320312 519.808594 550.558594 522.695312 550.082031 C 524.851562 549.71875 526.898438 548.765625 528.578125 547.5625 C 530.371094 546.117188 531.941406 544.4375 532.894531 542.40625 C 534.097656 539.886719 534.6875 537.015625 534.097656 533.890625 L 530.132812 512.070312 L 547.167969 496.589844 C 549.796875 494.308594 551.242188 491.308594 551.605469 488.3125 C 551.84375 486.265625 551.734375 484.238281 551.128906 482.320312 C 550.527344 480.527344 549.578125 478.71875 548.132812 477.164062 C 546.085938 474.882812 543.089844 473.199219 539.492188 472.722656 L 515.496094 469.488281 L 504.824219 449.332031 C 503.507812 446.699219 501.351562 444.78125 498.941406 443.449219 C 496.800781 442.386719 494.515625 441.785156 492.230469 441.785156 C 489.949219 441.785156 487.679688 442.386719 485.507812 443.464844 C 483.113281 444.78125 481.066406 446.699219 479.625 449.347656 L 468.953125 469.503906 L 445.101562 472.613281 C 441.5 473.089844 438.628906 474.769531 436.457031 477.054688 C 435.015625 478.609375 434.0625 480.289062 433.460938 482.207031 C 432.859375 484.125 432.746094 486.171875 432.984375 488.203125 C 433.347656 491.308594 434.792969 494.324219 437.425781 496.589844 Z M 474.960938 489.152344 C 477.117188 488.914062 479.164062 488.074219 480.957031 486.871094 C 482.875 485.664062 484.429688 483.871094 485.507812 481.828125 L 492.230469 468.996094 L 498.703125 481.953125 C 499.78125 484 501.335938 485.664062 503.253906 486.996094 C 505.046875 488.203125 507.21875 489.042969 509.375 489.390625 L 523.171875 491.308594 L 513.703125 499.953125 C 512.023438 501.507812 510.707031 503.425781 509.992188 505.582031 C 509.28125 507.738281 509.042969 510.132812 509.519531 512.542969 L 511.914062 525.5 L 498.605469 518.902344 C 496.5625 517.824219 494.40625 517.351562 492.25 517.351562 C 490.089844 517.351562 487.933594 517.824219 485.890625 518.792969 L 472.582031 525.390625 L 474.976562 512.433594 C 475.453125 510.039062 475.214844 507.628906 474.503906 505.472656 C 473.660156 503.316406 472.457031 501.269531 470.664062 499.714844 L 461.195312 491.074219 Z M 474.960938 489.152344 " fill-opacity="1" fill-rule="nonzero"/></g></svg>