<svg xmlns="http://www.w3.org/2000/svg" xmlns:xlink="http://www.w3.org/1999/xlink" width="2000" zoomAndPan="magnify" viewBox="0 0 1500 1499.999933" height="2000" preserveAspectRatio="xMidYMid meet" version="1.0"><defs><clipPath id="be5cccefb6"><path d="M 353.796875 373.121094 L 1113.546875 373.121094 L 1113.546875 1155 L 353.796875 1155 Z M 353.796875 373.121094 " clip-rule="nonzero"/></clipPath></defs><g clip-path="url(#be5cccefb6)"><path fill="#009ca2" d="M 716.683594 1086.484375 L 708.75 1049.902344 L 876.753906 1049.902344 L 868.78125 1086.484375 Z M 545.207031 666.039062 C 545.207031 642.199219 525.835938 622.804688 502.019531 622.804688 C 478.203125 622.804688 458.785156 642.199219 458.785156 666.039062 C 458.785156 689.882812 478.179688 709.230469 502.019531 709.230469 C 525.859375 709.230469 545.207031 689.855469 545.207031 666.039062 Z M 629.023438 708.214844 L 651.242188 703.140625 C 664.445312 700.214844 672.980469 690.820312 672.980469 679.207031 L 672.980469 677.449219 L 1031.203125 677.449219 C 1054.378906 677.449219 1073.234375 696.328125 1073.234375 719.53125 L 1073.234375 1027.082031 L 512.230469 1027.082031 L 512.230469 837 L 515.183594 837 C 526.796875 837 536.195312 828.46875 539.101562 815.332031 L 544.191406 793.042969 C 550.285156 791.011719 556.230469 788.542969 561.96875 785.65625 L 581.316406 797.835938 C 592.945312 805.136719 605.316406 804.527344 613.605469 796.242188 L 632.21875 777.625 C 640.472656 769.375 641.089844 757.015625 633.804688 745.324219 L 621.632812 725.992188 C 624.515625 720.253906 626.988281 714.308594 629.023438 708.214844 Z M 908.03125 852.242188 L 849.6875 899.503906 C 844.792969 903.46875 844.039062 910.652344 848.003906 915.550781 C 850.257812 918.332031 853.554688 919.777344 856.875 919.777344 C 859.402344 919.777344 861.941406 918.945312 864.050781 917.230469 L 933.339844 861.109375 C 936.011719 858.941406 937.566406 855.683594 937.566406 852.242188 C 937.566406 848.800781 936.011719 845.542969 933.339844 843.378906 L 864.050781 787.253906 C 859.15625 783.289062 851.972656 784.039062 848.003906 788.9375 C 844.039062 793.835938 844.792969 801.019531 849.691406 804.984375 L 908.035156 852.246094 Z M 762.714844 938.308594 C 763.957031 938.746094 765.226562 938.949219 766.472656 938.949219 C 771.191406 938.949219 775.605469 936.003906 777.246094 931.296875 L 829.765625 780.753906 C 831.84375 774.804688 828.699219 768.296875 822.753906 766.222656 C 816.804688 764.144531 810.300781 767.285156 808.222656 773.234375 L 755.699219 923.777344 C 753.625 929.726562 756.765625 936.230469 762.714844 938.308594 Z M 647.941406 852.242188 C 647.941406 855.683594 649.496094 858.9375 652.167969 861.105469 L 721.410156 917.230469 C 723.523438 918.945312 726.0625 919.777344 728.585938 919.777344 C 731.910156 919.777344 735.203125 918.332031 737.457031 915.550781 C 741.425781 910.65625 740.675781 903.472656 735.777344 899.503906 L 677.46875 852.242188 L 735.777344 804.980469 C 740.671875 801.011719 741.425781 793.828125 737.457031 788.933594 C 733.492188 784.039062 726.304688 783.289062 721.410156 787.253906 L 652.167969 843.378906 C 649.496094 845.542969 647.941406 848.800781 647.941406 852.242188 Z M 663.859375 513.199219 C 663.507812 513.117188 663.203125 513.03125 662.945312 512.941406 L 662.945312 493.570312 C 663.183594 493.492188 663.460938 493.417969 663.777344 493.347656 L 689.582031 487.46875 C 694.539062 486.339844 698.480469 482.578125 699.835938 477.675781 C 701.957031 470.011719 705.03125 462.625 708.980469 455.710938 C 711.515625 451.273438 711.398438 445.796875 708.671875 441.476562 L 694.542969 419.078125 C 694.367188 418.804688 694.226562 418.546875 694.113281 418.320312 L 707.851562 404.628906 C 708.058594 404.738281 708.289062 404.871094 708.539062 405.03125 L 730.988281 419.136719 C 735.285156 421.839844 740.71875 421.96875 745.140625 419.472656 C 752.09375 415.550781 759.507812 412.476562 767.1875 410.339844 C 772.082031 408.976562 775.835938 405.035156 776.960938 400.082031 L 782.84375 374.21875 C 782.90625 373.929688 782.980469 373.675781 783.050781 373.453125 L 802.460938 373.453125 C 802.535156 373.675781 802.609375 373.933594 802.671875 374.222656 L 808.550781 400.082031 C 809.679688 405.042969 813.441406 408.984375 818.347656 410.34375 C 825.960938 412.453125 833.371094 415.519531 840.371094 419.46875 C 844.792969 421.964844 850.226562 421.839844 854.523438 419.136719 L 877.03125 404.992188 C 877.273438 404.839844 877.492188 404.710938 877.695312 404.609375 L 891.410156 418.324219 C 891.296875 418.542969 891.160156 418.78125 890.992188 419.046875 L 876.886719 441.496094 C 874.183594 445.792969 874.054688 451.226562 876.550781 455.648438 C 880.5 462.644531 883.570312 470.058594 885.679688 477.675781 C 887.039062 482.578125 890.980469 486.339844 895.941406 487.46875 L 921.804688 493.351562 C 922.09375 493.414062 922.347656 493.488281 922.570312 493.558594 L 922.570312 512.957031 C 922.34375 513.035156 922.085938 513.109375 921.800781 513.179688 L 895.941406 519.058594 C 890.984375 520.183594 887.046875 523.9375 885.683594 528.832031 C 883.546875 536.507812 880.472656 543.925781 876.550781 550.878906 C 874.054688 555.300781 874.1875 560.734375 876.886719 565.03125 L 891.027344 587.535156 C 891.171875 587.761719 891.292969 587.972656 891.398438 588.167969 L 877.699219 601.90625 C 877.484375 601.800781 877.25 601.667969 876.992188 601.511719 L 854.542969 587.347656 C 850.21875 584.621094 844.746094 584.5 840.308594 587.039062 C 833.363281 591.007812 826 594.058594 818.421875 596.105469 C 813.484375 597.441406 809.6875 601.398438 808.554688 606.386719 L 802.667969 632.28125 C 802.605469 632.558594 802.539062 632.800781 802.46875 633.019531 L 783.046875 633.019531 C 782.980469 632.796875 782.90625 632.539062 782.84375 632.25 L 776.964844 606.390625 C 775.832031 601.40625 772.042969 597.453125 767.113281 596.113281 C 759.480469 594.035156 752.109375 590.984375 745.207031 587.039062 C 740.765625 584.5 735.292969 584.621094 730.972656 587.347656 L 708.570312 601.480469 C 708.308594 601.644531 708.066406 601.777344 707.851562 601.890625 L 694.132812 588.171875 C 694.234375 587.96875 694.359375 587.742188 694.511719 587.5 L 708.671875 565.054688 C 711.402344 560.730469 711.523438 555.257812 708.984375 550.816406 C 705.0625 543.949219 701.980469 536.550781 699.832031 528.835938 C 698.46875 523.941406 694.535156 520.1875 689.582031 519.058594 L 663.863281 513.203125 Z M 729.777344 503.261719 C 729.777344 537.988281 758.03125 566.238281 792.753906 566.238281 C 827.476562 566.238281 855.730469 537.988281 855.730469 503.261719 C 855.730469 468.539062 827.476562 440.230469 792.753906 440.230469 C 758.03125 440.230469 729.777344 468.507812 729.777344 503.261719 Z M 792.753906 545.082031 C 815.8125 545.082031 834.570312 526.324219 834.570312 503.269531 C 834.570312 480.210938 815.8125 461.386719 792.753906 461.386719 C 769.695312 461.386719 750.9375 480.171875 750.9375 503.269531 C 750.9375 526.363281 769.695312 545.082031 792.753906 545.082031 Z M 1113.238281 1067.039062 L 1113.238281 1137.574219 C 1113.238281 1147.046875 1105.53125 1154.757812 1096.054688 1154.757812 L 489.410156 1154.757812 C 479.957031 1154.757812 472.273438 1147.046875 472.273438 1137.574219 L 472.273438 1067.039062 C 472.273438 1057.589844 479.957031 1049.902344 489.410156 1049.902344 L 685.394531 1049.902344 L 694.898438 1093.699219 C 698.027344 1108.179688 708.042969 1109.304688 711.042969 1109.304688 L 874.421875 1109.304688 C 882.042969 1109.304688 887.394531 1104.351562 890.335938 1094.578125 L 900.101562 1049.902344 L 1096.054688 1049.902344 C 1105.53125 1049.902344 1113.238281 1057.589844 1113.238281 1067.039062 Z M 564.839844 1102.328125 C 564.839844 1096.027344 559.730469 1090.917969 553.429688 1090.917969 L 521.558594 1090.917969 C 515.253906 1090.917969 510.148438 1096.027344 510.148438 1102.328125 C 510.148438 1108.628906 515.257812 1113.738281 521.558594 1113.738281 L 553.429688 1113.738281 C 559.730469 1113.738281 564.839844 1108.628906 564.839844 1102.328125 Z M 646.921875 1102.328125 C 646.921875 1096.027344 641.816406 1090.917969 635.515625 1090.917969 L 603.640625 1090.917969 C 597.335938 1090.917969 592.230469 1096.027344 592.230469 1102.328125 C 592.230469 1108.628906 597.339844 1113.738281 603.640625 1113.738281 L 635.515625 1113.738281 C 641.816406 1113.738281 646.921875 1108.628906 646.921875 1102.328125 Z M 472.53125 773.0625 C 463.777344 770.648438 455.246094 767.109375 447.171875 762.539062 C 443.519531 760.46875 439.023438 760.574219 435.472656 762.8125 L 410.539062 778.511719 C 408.453125 779.820312 407.011719 780.054688 406.523438 780.054688 L 406.515625 780.054688 L 387.984375 761.519531 C 387.980469 761.042969 388.203125 759.601562 389.542969 757.480469 L 405.199219 732.578125 C 407.4375 729.027344 407.539062 724.535156 405.472656 720.886719 C 400.902344 712.820312 397.382812 704.296875 395.003906 695.5625 C 393.894531 691.496094 390.640625 688.375 386.535156 687.4375 L 357.730469 680.859375 C 355.332031 680.332031 354.164062 679.46875 353.832031 679.125 L 353.832031 652.929688 C 354.167969 652.585938 355.355469 651.714844 357.785156 651.160156 L 386.515625 644.644531 C 390.632812 643.710938 393.902344 640.582031 395.007812 636.503906 C 397.382812 627.734375 400.902344 619.222656 405.457031 611.21875 C 407.539062 607.566406 407.441406 603.066406 405.207031 599.507812 L 389.511719 574.507812 C 388.199219 572.441406 387.980469 571.023438 387.984375 570.554688 L 406.539062 552.007812 C 406.972656 552.015625 408.429688 552.230469 410.539062 553.570312 L 435.484375 569.226562 C 439.046875 571.464844 443.542969 571.5625 447.195312 569.480469 C 455.203125 564.921875 463.714844 561.40625 472.480469 559.03125 C 476.558594 557.925781 479.691406 554.660156 480.625 550.539062 L 487.132812 521.824219 C 487.695312 519.371094 488.570312 518.183594 488.910156 517.855469 L 515.101562 517.855469 C 515.449219 518.191406 516.3125 519.367188 516.855469 521.824219 L 523.414062 550.554688 C 524.351562 554.664062 527.476562 557.921875 531.542969 559.027344 C 540.296875 561.410156 548.796875 564.929688 556.796875 569.480469 C 560.449219 571.5625 564.949219 571.464844 568.507812 569.226562 L 593.503906 553.535156 C 595.597656 552.203125 597.039062 552.039062 597.503906 552.007812 L 616.035156 570.542969 C 616.035156 571.03125 615.804688 572.46875 614.496094 574.550781 L 598.792969 599.496094 C 596.550781 603.054688 596.449219 607.5625 598.53125 611.21875 C 603.070312 619.191406 606.605469 627.714844 609.042969 636.554688 C 610.160156 640.609375 613.417969 643.71875 617.519531 644.648438 L 646.238281 651.15625 C 648.667969 651.714844 649.839844 652.578125 650.160156 652.914062 L 650.160156 679.148438 C 649.832031 679.484375 648.671875 680.339844 646.234375 680.878906 L 617.503906 687.4375 C 613.414062 688.371094 610.164062 691.472656 609.046875 695.515625 C 606.601562 704.34375 603.066406 712.855469 598.53125 720.816406 C 596.449219 724.472656 596.550781 728.976562 598.792969 732.539062 L 614.46875 757.441406 C 615.808594 759.585938 616.039062 761.054688 616.035156 761.542969 L 597.519531 780.058594 C 596.984375 780.070312 595.570312 779.84375 593.460938 778.519531 L 568.519531 762.816406 C 564.960938 760.570312 560.453125 760.472656 556.796875 762.554688 C 548.832031 767.085938 540.316406 770.625 531.496094 773.066406 C 527.449219 774.1875 524.347656 777.433594 523.414062 781.523438 L 516.839844 810.328125 C 516.3125 812.707031 515.460938 813.859375 515.125 814.183594 L 488.890625 814.179688 C 488.550781 813.851562 487.6875 812.683594 487.140625 810.273438 L 480.628906 781.539062 C 479.699219 777.441406 476.585938 774.179688 472.53125 773.0625 Z M 502.019531 732.050781 C 538.414062 732.050781 568.027344 702.4375 568.027344 666.039062 C 568.027344 629.640625 538.414062 599.984375 502.019531 599.984375 C 465.621094 599.984375 435.960938 629.617188 435.960938 666.039062 C 435.960938 702.464844 465.59375 732.050781 502.019531 732.050781 Z M 502.019531 732.050781 " fill-opacity="1" fill-rule="nonzero"/></g></svg>