<svg xmlns="http://www.w3.org/2000/svg" xmlns:xlink="http://www.w3.org/1999/xlink" width="2000" zoomAndPan="magnify" viewBox="0 0 1500 1499.999933" height="2000" preserveAspectRatio="xMidYMid meet" version="1.0"><defs><clipPath id="f37bd08467"><path d="M 396 399.300781 L 1165 399.300781 L 1165 1159.800781 L 396 1159.800781 Z M 396 399.300781 " clip-rule="nonzero"/></clipPath></defs><g clip-path="url(#f37bd08467)"><path fill="#ffc657" d="M 875.902344 747.042969 L 885.5625 737.382812 L 902.71875 737.382812 C 902.84375 737.386719 902.953125 737.429688 903.046875 737.515625 C 903.140625 737.597656 903.195312 737.703125 903.214844 737.828125 L 903.214844 970.625 C 903.195312 970.75 903.140625 970.855469 903.046875 970.9375 C 902.953125 971.023438 902.84375 971.066406 902.71875 971.070312 L 452.882812 971.070312 C 452.761719 971.0625 452.660156 971.019531 452.574219 970.933594 C 452.488281 970.847656 452.445312 970.746094 452.4375 970.625 L 452.4375 737.828125 C 452.445312 737.707031 452.488281 737.605469 452.574219 737.519531 C 452.660156 737.433594 452.761719 737.390625 452.882812 737.382812 L 546.296875 737.382812 L 546.296875 766.027344 C 546.296875 767.515625 546.375 769 546.523438 770.480469 C 546.671875 771.960938 546.890625 773.433594 547.183594 774.890625 C 547.476562 776.351562 547.835938 777.792969 548.273438 779.214844 C 548.707031 780.640625 549.207031 782.039062 549.777344 783.414062 C 550.351562 784.789062 550.988281 786.132812 551.691406 787.441406 C 552.390625 788.753906 553.15625 790.027344 553.984375 791.265625 C 554.8125 792.503906 555.699219 793.695312 556.644531 794.847656 C 557.589844 795.996094 558.589844 797.097656 559.640625 798.148438 C 560.695312 799.199219 561.796875 800.199219 562.945312 801.140625 C 564.097656 802.085938 565.292969 802.972656 566.53125 803.796875 C 567.765625 804.625 569.042969 805.386719 570.355469 806.089844 C 571.667969 806.792969 573.011719 807.425781 574.386719 807.996094 C 575.761719 808.566406 577.160156 809.066406 578.585938 809.5 C 580.007812 809.929688 581.453125 810.292969 582.910156 810.582031 C 584.371094 810.875 585.839844 811.09375 587.320312 811.238281 C 588.804688 811.386719 590.289062 811.460938 591.777344 811.460938 L 830.425781 811.460938 C 831.914062 811.460938 833.398438 811.386719 834.878906 811.238281 C 836.359375 811.09375 837.832031 810.875 839.289062 810.582031 C 840.75 810.292969 842.191406 809.929688 843.617188 809.5 C 845.039062 809.066406 846.4375 808.566406 847.8125 807.996094 C 849.1875 807.425781 850.53125 806.792969 851.84375 806.089844 C 853.160156 805.386719 854.433594 804.625 855.671875 803.796875 C 856.910156 802.972656 858.101562 802.085938 859.253906 801.140625 C 860.40625 800.199219 861.507812 799.199219 862.558594 798.148438 C 863.613281 797.097656 864.609375 795.996094 865.554688 794.847656 C 866.5 793.695312 867.386719 792.503906 868.214844 791.265625 C 869.042969 790.027344 869.808594 788.753906 870.511719 787.441406 C 871.214844 786.132812 871.851562 784.789062 872.421875 783.414062 C 872.992188 782.039062 873.496094 780.640625 873.929688 779.214844 C 874.363281 777.792969 874.726562 776.351562 875.015625 774.890625 C 875.308594 773.433594 875.53125 771.960938 875.679688 770.480469 C 875.824219 769 875.902344 767.515625 875.902344 766.027344 Z M 857.714844 1159.867188 C 851.976562 1136.238281 829.113281 1118.808594 803.347656 1118.808594 L 552.261719 1118.808594 C 526.441406 1118.808594 503.574219 1136.28125 497.929688 1159.867188 C 617.332031 1159.777344 738.347656 1159.777344 857.714844 1159.867188 Z M 930.097656 660.214844 L 954.09375 636.210938 L 928.050781 610.164062 L 875.910156 662.304688 L 875.910156 714.441406 L 929.777344 660.546875 C 929.878906 660.429688 929.988281 660.320312 930.097656 660.214844 Z M 770.148438 639.308594 L 681.722656 581.601562 C 681.066406 581.140625 680.363281 580.78125 679.605469 580.523438 C 678.847656 580.265625 678.070312 580.117188 677.273438 580.082031 C 676.472656 580.046875 675.683594 580.121094 674.910156 580.3125 C 674.132812 580.503906 673.394531 580.796875 672.703125 581.195312 C 671.988281 581.554688 671.335938 582.007812 670.75 582.554688 C 670.160156 583.101562 669.664062 583.71875 669.253906 584.40625 C 668.84375 585.097656 668.539062 585.828125 668.335938 586.605469 C 668.136719 587.382812 668.050781 588.171875 668.074219 588.972656 L 668.074219 704.390625 C 668.046875 705.191406 668.136719 705.980469 668.335938 706.753906 C 668.535156 707.53125 668.839844 708.265625 669.25 708.953125 C 669.65625 709.640625 670.15625 710.257812 670.742188 710.804688 C 671.328125 711.351562 671.976562 711.804688 672.695312 712.164062 C 673.390625 712.566406 674.128906 712.859375 674.910156 713.050781 C 675.691406 713.242188 676.484375 713.320312 677.289062 713.285156 C 678.089844 713.25 678.875 713.105469 679.636719 712.847656 C 680.398438 712.589844 681.109375 712.230469 681.769531 711.773438 L 770.144531 654.050781 L 770.195312 654.023438 C 770.5 653.820312 770.789062 653.601562 771.0625 653.367188 C 771.339844 653.128906 771.597656 652.875 771.84375 652.609375 C 772.085938 652.339844 772.3125 652.054688 772.523438 651.757812 C 772.734375 651.460938 772.921875 651.152344 773.09375 650.832031 C 773.265625 650.511719 773.417969 650.183594 773.546875 649.84375 C 773.675781 649.503906 773.785156 649.160156 773.875 648.808594 C 773.960938 648.453125 774.027344 648.097656 774.070312 647.738281 C 774.113281 647.378906 774.132812 647.015625 774.132812 646.652344 C 774.132812 646.289062 774.109375 645.925781 774.0625 645.566406 C 774.015625 645.207031 773.949219 644.851562 773.859375 644.5 C 773.769531 644.144531 773.65625 643.800781 773.523438 643.464844 C 773.390625 643.125 773.238281 642.796875 773.0625 642.476562 C 772.890625 642.160156 772.699219 641.851562 772.488281 641.554688 C 772.273438 641.261719 772.046875 640.980469 771.800781 640.710938 C 771.554688 640.445312 771.292969 640.195312 771.015625 639.960938 C 770.738281 639.726562 770.445312 639.507812 770.144531 639.308594 Z M 822.84375 504.957031 L 852.847656 534.960938 L 852.847656 766.027344 C 852.847656 766.761719 852.808594 767.492188 852.734375 768.222656 C 852.660156 768.953125 852.554688 769.675781 852.410156 770.394531 C 852.265625 771.113281 852.085938 771.824219 851.871094 772.527344 C 851.65625 773.226562 851.410156 773.917969 851.128906 774.59375 C 850.847656 775.273438 850.53125 775.933594 850.183594 776.578125 C 849.839844 777.226562 849.460938 777.855469 849.050781 778.464844 C 848.644531 779.074219 848.207031 779.660156 847.742188 780.226562 C 847.277344 780.792969 846.78125 781.335938 846.265625 781.855469 C 845.746094 782.371094 845.203125 782.863281 844.632812 783.328125 C 844.066406 783.792969 843.476562 784.230469 842.867188 784.636719 C 842.257812 785.042969 841.628906 785.417969 840.980469 785.765625 C 840.335938 786.109375 839.671875 786.421875 838.996094 786.703125 C 838.316406 786.984375 837.628906 787.230469 836.925781 787.441406 C 836.222656 787.65625 835.511719 787.832031 834.792969 787.976562 C 834.074219 788.121094 833.351562 788.226562 832.621094 788.300781 C 831.890625 788.371094 831.160156 788.40625 830.425781 788.40625 L 591.777344 788.40625 C 591.042969 788.40625 590.3125 788.371094 589.582031 788.300781 C 588.851562 788.226562 588.125 788.121094 587.40625 787.976562 C 586.6875 787.832031 585.976562 787.65625 585.273438 787.441406 C 584.574219 787.230469 583.882812 786.984375 583.207031 786.703125 C 582.527344 786.421875 581.867188 786.109375 581.21875 785.765625 C 580.570312 785.417969 579.941406 785.042969 579.332031 784.636719 C 578.722656 784.230469 578.132812 783.792969 577.566406 783.328125 C 577 782.863281 576.457031 782.371094 575.9375 781.855469 C 575.417969 781.335938 574.925781 780.792969 574.460938 780.226562 C 573.992188 779.660156 573.554688 779.074219 573.148438 778.464844 C 572.738281 777.855469 572.363281 777.226562 572.015625 776.578125 C 571.667969 775.933594 571.355469 775.273438 571.074219 774.59375 C 570.789062 773.917969 570.542969 773.226562 570.328125 772.527344 C 570.113281 771.824219 569.933594 771.113281 569.792969 770.394531 C 569.648438 769.675781 569.539062 768.953125 569.464844 768.222656 C 569.390625 767.492188 569.355469 766.761719 569.351562 766.027344 L 569.351562 527.332031 C 569.355469 526.597656 569.390625 525.867188 569.464844 525.136719 C 569.539062 524.410156 569.648438 523.683594 569.792969 522.964844 C 569.9375 522.246094 570.117188 521.535156 570.328125 520.835938 C 570.542969 520.132812 570.792969 519.445312 571.074219 518.765625 C 571.355469 518.089844 571.667969 517.425781 572.015625 516.78125 C 572.363281 516.136719 572.742188 515.507812 573.148438 514.898438 C 573.558594 514.289062 573.996094 513.699219 574.460938 513.136719 C 574.925781 512.570312 575.417969 512.027344 575.9375 511.507812 C 576.457031 510.988281 577 510.5 577.566406 510.035156 C 578.136719 509.570312 578.722656 509.132812 579.332031 508.726562 C 579.945312 508.320312 580.574219 507.941406 581.21875 507.597656 C 581.867188 507.253906 582.527344 506.941406 583.207031 506.660156 C 583.882812 506.378906 584.574219 506.132812 585.277344 505.921875 C 585.976562 505.707031 586.6875 505.53125 587.40625 505.386719 C 588.125 505.242188 588.851562 505.136719 589.582031 505.0625 C 590.3125 504.992188 591.042969 504.957031 591.777344 504.957031 Z M 797.195312 646.675781 C 797.207031 645.351562 797.136719 644.035156 796.980469 642.726562 C 796.828125 641.414062 796.589844 640.117188 796.269531 638.832031 C 795.953125 637.550781 795.554688 636.296875 795.078125 635.0625 C 794.597656 633.832031 794.046875 632.636719 793.417969 631.472656 C 792.789062 630.3125 792.089844 629.195312 791.316406 628.121094 C 790.546875 627.046875 789.714844 626.027344 788.8125 625.058594 C 787.914062 624.089844 786.957031 623.183594 785.945312 622.335938 C 784.929688 621.488281 783.867188 620.710938 782.753906 619.996094 L 694.316406 562.300781 C 693.121094 561.515625 691.878906 560.816406 690.589844 560.203125 C 689.296875 559.585938 687.972656 559.058594 686.609375 558.621094 C 685.25 558.183594 683.863281 557.839844 682.457031 557.589844 C 681.050781 557.339844 679.632812 557.183594 678.203125 557.125 C 676.773438 557.066406 675.347656 557.101562 673.925781 557.234375 C 672.5 557.367188 671.09375 557.59375 669.699219 557.914062 C 668.304688 558.238281 666.941406 558.652344 665.605469 559.15625 C 664.265625 559.664062 662.96875 560.253906 661.710938 560.9375 C 660.453125 561.617188 659.25 562.378906 658.09375 563.222656 C 656.9375 564.0625 655.84375 564.980469 654.8125 565.96875 C 653.78125 566.960938 652.820312 568.015625 651.933594 569.136719 C 651.042969 570.253906 650.234375 571.429688 649.5 572.65625 C 648.769531 573.886719 648.125 575.15625 647.566406 576.472656 C 647.003906 577.789062 646.535156 579.136719 646.15625 580.515625 C 645.777344 581.894531 645.492188 583.292969 645.304688 584.707031 C 645.113281 586.125 645.019531 587.550781 645.019531 588.980469 L 645.019531 704.398438 C 645.007812 705.828125 645.09375 707.257812 645.277344 708.675781 C 645.457031 710.097656 645.738281 711.5 646.113281 712.878906 C 646.484375 714.261719 646.953125 715.613281 647.511719 716.933594 C 648.070312 718.25 648.714844 719.527344 649.449219 720.757812 C 650.179688 721.988281 650.992188 723.160156 651.886719 724.28125 C 652.78125 725.402344 653.746094 726.453125 654.78125 727.441406 C 655.820312 728.429688 656.917969 729.34375 658.078125 730.179688 C 659.242188 731.019531 660.453125 731.773438 661.71875 732.445312 C 662.972656 733.132812 664.269531 733.734375 665.605469 734.25 C 666.941406 734.761719 668.304688 735.183594 669.699219 735.511719 C 671.089844 735.839844 672.5 736.070312 673.925781 736.207031 C 675.347656 736.34375 676.777344 736.382812 678.207031 736.324219 C 679.636719 736.265625 681.054688 736.113281 682.464844 735.859375 C 683.871094 735.609375 685.257812 735.265625 686.621094 734.824219 C 687.980469 734.386719 689.308594 733.855469 690.597656 733.238281 C 691.886719 732.617188 693.128906 731.914062 694.324219 731.125 L 782.742188 673.382812 C 783.855469 672.671875 784.921875 671.890625 785.941406 671.046875 C 786.957031 670.199219 787.917969 669.292969 788.816406 668.324219 C 789.71875 667.359375 790.554688 666.335938 791.328125 665.261719 C 792.101562 664.1875 792.800781 663.070312 793.429688 661.90625 C 794.0625 660.742188 794.613281 659.542969 795.09375 658.308594 C 795.570312 657.078125 795.96875 655.816406 796.285156 654.535156 C 796.601562 653.25 796.835938 651.949219 796.988281 650.636719 C 797.140625 649.320312 797.210938 648.003906 797.195312 646.679688 Z M 594.773438 1095.75 L 760.871094 1095.75 C 756.515625 1088.90625 753.246094 1081.578125 751.058594 1073.769531 L 604.59375 1073.769531 C 602.402344 1081.582031 599.132812 1088.910156 594.773438 1095.753906 Z M 416.167969 680.046875 L 546.296875 680.046875 L 546.296875 714.328125 L 452.882812 714.328125 C 452.113281 714.328125 451.34375 714.367188 450.578125 714.441406 C 449.8125 714.519531 449.054688 714.632812 448.296875 714.785156 C 447.542969 714.933594 446.796875 715.121094 446.0625 715.34375 C 445.328125 715.570312 444.601562 715.828125 443.890625 716.125 C 443.183594 716.417969 442.488281 716.746094 441.808594 717.109375 C 441.128906 717.472656 440.472656 717.867188 439.832031 718.296875 C 439.191406 718.722656 438.574219 719.183594 437.980469 719.671875 C 437.386719 720.160156 436.816406 720.675781 436.273438 721.21875 C 435.726562 721.761719 435.210938 722.332031 434.722656 722.925781 C 434.234375 723.519531 433.777344 724.136719 433.351562 724.777344 C 432.921875 725.417969 432.527344 726.078125 432.164062 726.753906 C 431.800781 727.433594 431.472656 728.128906 431.179688 728.839844 C 430.882812 729.550781 430.625 730.273438 430.398438 731.007812 C 430.175781 731.746094 429.988281 732.492188 429.839844 733.246094 C 429.6875 734 429.574219 734.757812 429.5 735.523438 C 429.421875 736.289062 429.382812 737.058594 429.382812 737.828125 L 429.382812 970.625 C 429.382812 971.394531 429.421875 972.164062 429.5 972.929688 C 429.574219 973.695312 429.6875 974.453125 429.839844 975.207031 C 429.988281 975.964844 430.175781 976.707031 430.398438 977.445312 C 430.625 978.179688 430.882812 978.902344 431.179688 979.613281 C 431.472656 980.324219 431.800781 981.019531 432.164062 981.699219 C 432.527344 982.375 432.921875 983.035156 433.351562 983.675781 C 433.777344 984.316406 434.234375 984.933594 434.722656 985.527344 C 435.210938 986.121094 435.726562 986.691406 436.273438 987.234375 C 436.816406 987.777344 437.386719 988.296875 437.980469 988.785156 C 438.574219 989.269531 439.191406 989.730469 439.832031 990.15625 C 440.472656 990.585938 441.128906 990.980469 441.808594 991.34375 C 442.488281 991.707031 443.183594 992.035156 443.890625 992.328125 C 444.601562 992.625 445.328125 992.882812 446.0625 993.109375 C 446.796875 993.332031 447.542969 993.519531 448.296875 993.667969 C 449.054688 993.820312 449.8125 993.933594 450.578125 994.011719 C 451.34375 994.085938 452.113281 994.125 452.882812 994.125 L 902.722656 994.125 C 903.496094 994.125 904.261719 994.085938 905.027344 994.011719 C 905.796875 993.9375 906.554688 993.824219 907.3125 993.675781 C 908.066406 993.523438 908.8125 993.335938 909.550781 993.113281 C 910.289062 992.890625 911.011719 992.632812 911.722656 992.335938 C 912.433594 992.042969 913.128906 991.714844 913.808594 991.351562 C 914.488281 990.988281 915.148438 990.59375 915.789062 990.167969 C 916.429688 989.738281 917.050781 989.28125 917.644531 988.792969 C 918.242188 988.304688 918.8125 987.789062 919.355469 987.246094 C 919.902344 986.699219 920.417969 986.132812 920.90625 985.535156 C 921.398438 984.941406 921.855469 984.324219 922.285156 983.683594 C 922.714844 983.042969 923.109375 982.386719 923.472656 981.707031 C 923.839844 981.027344 924.167969 980.332031 924.464844 979.621094 C 924.757812 978.910156 925.019531 978.1875 925.246094 977.449219 C 925.46875 976.714844 925.65625 975.96875 925.808594 975.210938 C 925.960938 974.457031 926.074219 973.695312 926.152344 972.929688 C 926.230469 972.164062 926.269531 971.394531 926.269531 970.625 L 926.269531 737.828125 C 926.265625 736.507812 926.152344 735.195312 925.929688 733.894531 C 925.707031 732.59375 925.375 731.320312 924.9375 730.074219 C 924.5 728.828125 923.960938 727.628906 923.320312 726.476562 C 922.679688 725.320312 921.949219 724.226562 921.125 723.195312 C 920.300781 722.164062 919.394531 721.207031 918.410156 720.328125 C 917.425781 719.449219 916.375 718.660156 915.257812 717.957031 C 914.140625 717.253906 912.972656 716.648438 911.75 716.144531 C 910.53125 715.636719 909.277344 715.238281 907.992188 714.941406 L 942.601562 680.316406 C 943.773438 680.5 944.914062 680.785156 946.03125 681.171875 C 947.148438 681.5625 948.226562 682.042969 949.257812 682.621094 C 950.289062 683.199219 951.261719 683.863281 952.179688 684.613281 C 953.09375 685.363281 953.933594 686.1875 954.703125 687.085938 C 955.472656 687.984375 956.15625 688.941406 956.757812 689.960938 C 957.355469 690.980469 957.863281 692.046875 958.273438 693.15625 C 958.683594 694.265625 958.996094 695.402344 959.203125 696.566406 C 959.414062 697.730469 959.519531 698.902344 959.523438 700.085938 L 959.523438 1030.679688 C 959.519531 1031.335938 959.488281 1031.988281 959.421875 1032.640625 C 959.359375 1033.296875 959.261719 1033.945312 959.132812 1034.585938 C 959.003906 1035.230469 958.84375 1035.867188 958.652344 1036.492188 C 958.460938 1037.121094 958.242188 1037.738281 957.992188 1038.34375 C 957.738281 1038.949219 957.457031 1039.542969 957.148438 1040.121094 C 956.839844 1040.699219 956.503906 1041.261719 956.136719 1041.808594 C 955.773438 1042.351562 955.382812 1042.878906 954.964844 1043.386719 C 954.550781 1043.894531 954.109375 1044.378906 953.644531 1044.84375 C 953.179688 1045.304688 952.695312 1045.746094 952.1875 1046.164062 C 951.683594 1046.578125 951.15625 1046.96875 950.609375 1047.335938 C 950.066406 1047.699219 949.503906 1048.035156 948.925781 1048.347656 C 948.34375 1048.65625 947.753906 1048.9375 947.148438 1049.1875 C 946.542969 1049.4375 945.925781 1049.660156 945.296875 1049.851562 C 944.667969 1050.042969 944.035156 1050.203125 943.390625 1050.328125 C 942.746094 1050.457031 942.097656 1050.554688 941.445312 1050.621094 C 940.792969 1050.683594 940.136719 1050.71875 939.480469 1050.71875 L 416.167969 1050.71875 C 415.511719 1050.71875 414.859375 1050.683594 414.207031 1050.621094 C 413.554688 1050.554688 412.90625 1050.457031 412.261719 1050.328125 C 411.617188 1050.199219 410.984375 1050.042969 410.355469 1049.851562 C 409.726562 1049.660156 409.109375 1049.4375 408.503906 1049.1875 C 407.898438 1048.933594 407.304688 1048.65625 406.726562 1048.34375 C 406.148438 1048.035156 405.585938 1047.699219 405.042969 1047.332031 C 404.496094 1046.96875 403.96875 1046.578125 403.464844 1046.164062 C 402.957031 1045.746094 402.472656 1045.304688 402.007812 1044.84375 C 401.542969 1044.378906 401.101562 1043.890625 400.6875 1043.386719 C 400.269531 1042.878906 399.878906 1042.351562 399.515625 1041.804688 C 399.152344 1041.261719 398.8125 1040.699219 398.503906 1040.121094 C 398.195312 1039.542969 397.914062 1038.949219 397.664062 1038.34375 C 397.410156 1037.738281 397.191406 1037.121094 397 1036.492188 C 396.808594 1035.867188 396.648438 1035.230469 396.519531 1034.585938 C 396.390625 1033.941406 396.292969 1033.296875 396.230469 1032.640625 C 396.164062 1031.988281 396.132812 1031.335938 396.132812 1030.679688 L 396.132812 700.085938 C 396.132812 699.429688 396.164062 698.777344 396.230469 698.125 C 396.292969 697.46875 396.390625 696.820312 396.519531 696.179688 C 396.648438 695.535156 396.808594 694.898438 397 694.273438 C 397.191406 693.644531 397.410156 693.027344 397.664062 692.421875 C 397.914062 691.816406 398.195312 691.222656 398.503906 690.644531 C 398.8125 690.066406 399.152344 689.503906 399.515625 688.960938 C 399.878906 688.414062 400.269531 687.886719 400.6875 687.378906 C 401.101562 686.875 401.542969 686.386719 402.007812 685.925781 C 402.472656 685.460938 402.957031 685.019531 403.464844 684.605469 C 403.96875 684.1875 404.496094 683.796875 405.042969 683.433594 C 405.585938 683.066406 406.148438 682.730469 406.726562 682.421875 C 407.304688 682.113281 407.898438 681.832031 408.503906 681.578125 C 409.109375 681.328125 409.726562 681.105469 410.355469 680.917969 C 410.984375 680.726562 411.617188 680.566406 412.261719 680.4375 C 412.90625 680.308594 413.554688 680.210938 414.207031 680.148438 C 414.859375 680.082031 415.511719 680.050781 416.167969 680.046875 Z M 637.117188 1022.445312 C 637.117188 1023.203125 637.191406 1023.953125 637.335938 1024.695312 C 637.484375 1025.4375 637.703125 1026.160156 637.992188 1026.859375 C 638.285156 1027.558594 638.640625 1028.222656 639.058594 1028.851562 C 639.480469 1029.480469 639.957031 1030.0625 640.492188 1030.597656 C 641.027344 1031.132812 641.609375 1031.609375 642.242188 1032.03125 C 642.871094 1032.453125 643.535156 1032.804688 644.234375 1033.097656 C 644.933594 1033.386719 645.652344 1033.605469 646.394531 1033.753906 C 647.136719 1033.898438 647.886719 1033.972656 648.644531 1033.972656 L 707.007812 1033.972656 C 707.765625 1033.972656 708.515625 1033.898438 709.257812 1033.75 C 710 1033.605469 710.71875 1033.386719 711.417969 1033.097656 C 712.117188 1032.804688 712.78125 1032.453125 713.414062 1032.03125 C 714.042969 1031.609375 714.625 1031.132812 715.160156 1030.597656 C 715.695312 1030.0625 716.171875 1029.480469 716.59375 1028.851562 C 717.011719 1028.222656 717.367188 1027.558594 717.65625 1026.855469 C 717.949219 1026.15625 718.167969 1025.4375 718.3125 1024.695312 C 718.460938 1023.953125 718.535156 1023.203125 718.535156 1022.445312 C 718.535156 1021.6875 718.460938 1020.941406 718.3125 1020.199219 C 718.167969 1019.453125 717.949219 1018.734375 717.65625 1018.035156 C 717.367188 1017.335938 717.011719 1016.671875 716.59375 1016.042969 C 716.171875 1015.414062 715.695312 1014.832031 715.160156 1014.296875 C 714.625 1013.761719 714.042969 1013.28125 713.414062 1012.863281 C 712.78125 1012.441406 712.117188 1012.085938 711.417969 1011.796875 C 710.71875 1011.507812 710 1011.289062 709.257812 1011.140625 C 708.515625 1010.992188 707.765625 1010.917969 707.007812 1010.917969 L 648.644531 1010.917969 C 647.886719 1010.917969 647.136719 1010.992188 646.394531 1011.140625 C 645.652344 1011.289062 644.933594 1011.507812 644.234375 1011.796875 C 643.535156 1012.085938 642.871094 1012.441406 642.242188 1012.863281 C 641.609375 1013.28125 641.027344 1013.761719 640.492188 1014.296875 C 639.957031 1014.832031 639.480469 1015.414062 639.058594 1016.042969 C 638.640625 1016.671875 638.285156 1017.335938 637.992188 1018.035156 C 637.703125 1018.734375 637.484375 1019.453125 637.335938 1020.199219 C 637.191406 1020.941406 637.117188 1021.6875 637.117188 1022.445312 Z M 1164.988281 477.574219 C 1164.988281 479.21875 1164.9375 480.863281 1164.832031 482.503906 C 1164.726562 484.148438 1164.574219 485.785156 1164.367188 487.414062 C 1164.160156 489.046875 1163.902344 490.671875 1163.589844 492.289062 C 1163.28125 493.902344 1162.921875 495.507812 1162.511719 497.101562 C 1162.101562 498.695312 1161.640625 500.273438 1161.132812 501.835938 C 1160.621094 503.402344 1160.0625 504.949219 1159.457031 506.476562 C 1158.847656 508.003906 1158.191406 509.515625 1157.492188 511 C 1156.789062 512.488281 1156.039062 513.953125 1155.246094 515.394531 C 1154.449219 516.835938 1153.613281 518.25 1152.726562 519.636719 C 1151.84375 521.023438 1150.917969 522.382812 1149.949219 523.710938 C 1148.980469 525.039062 1147.96875 526.339844 1146.917969 527.605469 C 1145.867188 528.871094 1144.777344 530.101562 1143.648438 531.296875 C 1142.519531 532.496094 1141.355469 533.65625 1140.152344 534.777344 C 1138.949219 535.902344 1137.714844 536.988281 1136.445312 538.03125 C 1135.175781 539.078125 1133.875 540.082031 1132.539062 541.046875 C 1131.207031 542.011719 1129.84375 542.929688 1128.453125 543.808594 C 1127.0625 544.6875 1125.644531 545.519531 1124.199219 546.308594 C 1122.757812 547.097656 1121.289062 547.839844 1119.796875 548.535156 C 1118.308594 549.230469 1116.796875 549.878906 1115.265625 550.480469 C 1113.734375 551.082031 1112.183594 551.632812 1110.617188 552.136719 C 1109.050781 552.640625 1107.472656 553.09375 1105.875 553.496094 C 1104.28125 553.902344 1102.675781 554.253906 1101.058594 554.554688 C 1099.441406 554.859375 1097.816406 555.109375 1096.183594 555.308594 C 1094.550781 555.511719 1092.914062 555.660156 1091.269531 555.753906 C 1089.628906 555.851562 1087.984375 555.898438 1086.339844 555.890625 C 1084.695312 555.882812 1083.050781 555.824219 1081.410156 555.714844 C 1079.769531 555.605469 1078.132812 555.445312 1076.5 555.230469 C 1074.871094 555.015625 1073.246094 554.753906 1071.632812 554.4375 C 1070.019531 554.121094 1068.414062 553.753906 1066.824219 553.339844 C 1065.230469 552.921875 1063.65625 552.457031 1062.09375 551.941406 C 1060.53125 551.425781 1058.984375 550.859375 1057.460938 550.246094 C 1055.933594 549.632812 1054.425781 548.972656 1052.941406 548.265625 C 1051.867188 547.75 1050.738281 547.410156 1049.558594 547.246094 C 1048.378906 547.082031 1047.203125 547.101562 1046.027344 547.300781 C 1044.855469 547.503906 1043.738281 547.878906 1042.679688 548.425781 C 1041.621094 548.972656 1040.671875 549.667969 1039.828125 550.507812 L 1012.769531 577.539062 L 986.722656 551.488281 L 1013.761719 524.445312 C 1014.605469 523.605469 1015.300781 522.652344 1015.847656 521.59375 C 1016.398438 520.535156 1016.773438 519.421875 1016.972656 518.246094 C 1017.175781 517.070312 1017.195312 515.894531 1017.03125 514.710938 C 1016.867188 513.53125 1016.527344 512.402344 1016.011719 511.328125 C 1015.382812 510.007812 1014.789062 508.671875 1014.234375 507.316406 C 1013.679688 505.960938 1013.160156 504.59375 1012.683594 503.210938 C 1012.203125 501.828125 1011.761719 500.433594 1011.363281 499.027344 C 1010.960938 497.617188 1010.601562 496.203125 1010.28125 494.773438 C 1009.960938 493.347656 1009.679688 491.910156 1009.4375 490.46875 C 1009.195312 489.023438 1008.996094 487.574219 1008.835938 486.121094 C 1008.679688 484.664062 1008.558594 483.207031 1008.480469 481.746094 C 1008.402344 480.285156 1008.367188 478.824219 1008.371094 477.359375 C 1008.375 475.894531 1008.421875 474.433594 1008.507812 472.972656 C 1008.59375 471.511719 1008.71875 470.054688 1008.886719 468.601562 C 1009.054688 467.148438 1009.265625 465.699219 1009.511719 464.257812 C 1009.761719 462.816406 1010.050781 461.382812 1010.382812 459.957031 C 1010.710938 458.53125 1011.078125 457.113281 1011.488281 455.710938 C 1011.898438 454.304688 1012.34375 452.914062 1012.832031 451.53125 C 1013.320312 450.152344 1013.84375 448.785156 1014.40625 447.4375 C 1014.972656 446.085938 1015.570312 444.753906 1016.210938 443.433594 C 1016.847656 442.117188 1017.523438 440.820312 1018.234375 439.542969 C 1018.945312 438.261719 1019.691406 437.003906 1020.472656 435.765625 C 1021.253906 434.53125 1022.070312 433.316406 1022.917969 432.125 C 1023.769531 430.933594 1024.652344 429.765625 1025.566406 428.625 C 1026.480469 427.480469 1027.425781 426.367188 1028.40625 425.277344 C 1029.382812 424.1875 1030.390625 423.128906 1031.425781 422.09375 C 1032.464844 421.0625 1033.527344 420.058594 1034.621094 419.085938 C 1035.714844 418.113281 1036.832031 417.171875 1037.980469 416.261719 C 1039.125 415.351562 1040.296875 414.476562 1041.492188 413.632812 C 1042.6875 412.785156 1043.902344 411.976562 1045.144531 411.199219 C 1046.386719 410.425781 1047.648438 409.683594 1048.929688 408.976562 C 1050.210938 408.273438 1051.511719 407.601562 1052.832031 406.972656 C 1054.152344 406.339844 1055.488281 405.742188 1056.839844 405.1875 C 1058.191406 404.628906 1059.558594 404.109375 1060.941406 403.628906 C 1062.324219 403.148438 1063.71875 402.703125 1065.125 402.300781 C 1066.53125 401.898438 1067.949219 401.535156 1069.375 401.210938 C 1070.804688 400.890625 1072.238281 400.605469 1073.683594 400.363281 C 1075.125 400.121094 1076.574219 399.917969 1078.027344 399.757812 C 1079.484375 399.59375 1080.941406 399.472656 1082.402344 399.394531 C 1083.863281 399.3125 1085.324219 399.273438 1086.789062 399.277344 C 1088.25 399.277344 1089.714844 399.324219 1091.175781 399.40625 C 1092.636719 399.488281 1094.09375 399.613281 1095.546875 399.78125 C 1097 399.945312 1098.449219 400.152344 1099.890625 400.398438 C 1101.332031 400.644531 1102.769531 400.933594 1104.195312 401.261719 C 1105.621094 401.589844 1107.035156 401.953125 1108.441406 402.363281 C 1109.847656 402.769531 1111.242188 403.214844 1112.621094 403.699219 C 1114.003906 404.183594 1115.367188 404.707031 1116.71875 405.269531 C 1118.070312 405.828125 1119.40625 406.429688 1120.722656 407.0625 C 1122.042969 407.699219 1123.339844 408.371094 1124.621094 409.082031 C 1125.902344 409.789062 1127.160156 410.535156 1128.398438 411.316406 C 1129.636719 412.09375 1130.851562 412.90625 1132.046875 413.753906 C 1133.238281 414.601562 1134.40625 415.484375 1135.550781 416.398438 C 1136.691406 417.308594 1137.808594 418.253906 1138.902344 419.230469 C 1139.992188 420.207031 1141.054688 421.210938 1142.085938 422.246094 C 1143.121094 423.28125 1144.125 424.347656 1145.101562 425.4375 C 1146.074219 426.53125 1147.019531 427.648438 1147.929688 428.792969 C 1148.839844 429.9375 1149.71875 431.105469 1150.566406 432.300781 C 1151.414062 433.492188 1152.226562 434.710938 1153.003906 435.949219 C 1153.78125 437.1875 1154.523438 438.449219 1155.230469 439.730469 C 1155.9375 441.011719 1156.609375 442.3125 1157.246094 443.628906 C 1157.878906 444.949219 1158.476562 446.285156 1159.035156 447.636719 C 1159.59375 448.988281 1160.117188 450.355469 1160.601562 451.734375 C 1161.082031 453.117188 1161.527344 454.511719 1161.933594 455.917969 C 1162.335938 457.324219 1162.703125 458.738281 1163.027344 460.167969 C 1163.351562 461.59375 1163.636719 463.027344 1163.882812 464.46875 C 1164.128906 465.914062 1164.332031 467.359375 1164.496094 468.816406 C 1164.660156 470.269531 1164.785156 471.726562 1164.867188 473.1875 C 1164.949219 474.648438 1164.988281 476.109375 1164.988281 477.574219 Z M 1144.492188 477.597656 C 1144.492188 475.703125 1144.394531 473.816406 1144.210938 471.933594 C 1144.023438 470.050781 1143.742188 468.179688 1143.371094 466.324219 C 1143 464.464844 1142.539062 462.632812 1141.992188 460.820312 C 1141.441406 459.011719 1140.800781 457.230469 1140.078125 455.480469 C 1139.351562 453.734375 1138.542969 452.023438 1137.648438 450.355469 C 1136.757812 448.6875 1135.785156 447.066406 1134.730469 445.492188 C 1133.679688 443.917969 1132.554688 442.398438 1131.351562 440.9375 C 1130.152344 439.472656 1128.882812 438.074219 1127.542969 436.734375 C 1126.203125 435.394531 1124.804688 434.125 1123.339844 432.925781 C 1121.878906 431.722656 1120.359375 430.597656 1118.785156 429.542969 C 1117.210938 428.492188 1115.589844 427.519531 1113.921875 426.628906 C 1112.25 425.734375 1110.542969 424.925781 1108.792969 424.199219 C 1107.046875 423.472656 1105.265625 422.835938 1103.453125 422.285156 C 1101.644531 421.734375 1099.808594 421.273438 1097.953125 420.902344 C 1096.097656 420.535156 1094.226562 420.253906 1092.34375 420.066406 C 1090.460938 419.878906 1088.570312 419.785156 1086.679688 419.785156 C 1084.785156 419.785156 1082.898438 419.878906 1081.015625 420.0625 C 1079.132812 420.25 1077.261719 420.527344 1075.40625 420.898438 C 1073.550781 421.269531 1071.71875 421.726562 1069.90625 422.277344 C 1068.097656 422.828125 1066.316406 423.464844 1064.570312 424.191406 C 1062.820312 424.914062 1061.113281 425.722656 1059.441406 426.617188 C 1057.773438 427.507812 1056.152344 428.480469 1054.582031 429.53125 C 1053.007812 430.585938 1051.488281 431.710938 1050.027344 432.910156 C 1048.566406 434.113281 1047.164062 435.382812 1045.828125 436.722656 C 1044.488281 438.058594 1043.21875 439.460938 1042.019531 440.921875 C 1040.820312 442.386719 1039.695312 443.90625 1038.644531 445.480469 C 1037.59375 447.050781 1036.621094 448.675781 1035.730469 450.34375 C 1034.835938 452.011719 1034.03125 453.722656 1033.304688 455.46875 C 1032.582031 457.21875 1031.945312 458.996094 1031.394531 460.808594 C 1030.847656 462.621094 1030.386719 464.453125 1030.019531 466.308594 C 1029.652344 468.164062 1029.375 470.035156 1029.1875 471.917969 C 1029.003906 473.800781 1028.910156 475.691406 1028.910156 477.582031 C 1028.910156 479.476562 1029.003906 481.363281 1029.191406 483.246094 C 1029.375 485.128906 1029.652344 487 1030.023438 488.855469 C 1030.390625 490.710938 1030.851562 492.542969 1031.402344 494.355469 C 1031.949219 496.164062 1032.585938 497.945312 1033.3125 499.695312 C 1034.035156 501.441406 1034.84375 503.152344 1035.734375 504.820312 C 1036.628906 506.488281 1037.601562 508.109375 1038.652344 509.683594 C 1039.703125 511.257812 1040.828125 512.773438 1042.03125 514.238281 C 1043.230469 515.699219 1044.5 517.101562 1045.835938 518.4375 C 1047.175781 519.777344 1048.578125 521.046875 1050.039062 522.246094 C 1051.5 523.449219 1053.019531 524.574219 1054.59375 525.625 C 1056.167969 526.675781 1057.789062 527.648438 1059.457031 528.539062 C 1061.125 529.433594 1062.835938 530.242188 1064.582031 530.964844 C 1066.332031 531.6875 1068.109375 532.324219 1069.921875 532.875 C 1071.730469 533.425781 1073.566406 533.882812 1075.421875 534.253906 C 1077.277344 534.625 1079.148438 534.902344 1081.03125 535.085938 C 1082.914062 535.273438 1084.800781 535.363281 1086.695312 535.367188 C 1088.585938 535.367188 1090.472656 535.273438 1092.359375 535.089844 C 1094.242188 534.902344 1096.109375 534.625 1097.96875 534.257812 C 1099.824219 533.886719 1101.65625 533.429688 1103.46875 532.878906 C 1105.277344 532.332031 1107.058594 531.695312 1108.808594 530.972656 C 1110.554688 530.246094 1112.265625 529.4375 1113.933594 528.546875 C 1115.601562 527.65625 1117.222656 526.683594 1118.796875 525.632812 C 1120.371094 524.582031 1121.890625 523.457031 1123.351562 522.257812 C 1124.816406 521.054688 1126.21875 519.789062 1127.554688 518.449219 C 1128.894531 517.113281 1130.164062 515.710938 1131.363281 514.25 C 1132.566406 512.785156 1133.691406 511.269531 1134.742188 509.695312 C 1135.796875 508.121094 1136.769531 506.5 1137.660156 504.832031 C 1138.554688 503.164062 1139.363281 501.457031 1140.085938 499.707031 C 1140.8125 497.960938 1141.449219 496.179688 1142 494.371094 C 1142.546875 492.558594 1143.007812 490.726562 1143.378906 488.871094 C 1143.75 487.015625 1144.027344 485.144531 1144.210938 483.261719 C 1144.398438 481.378906 1144.492188 479.488281 1144.492188 477.597656 Z M 1142.058594 765.5 C 1140.441406 767.117188 1138.757812 768.660156 1137.003906 770.128906 C 1135.253906 771.601562 1133.441406 772.992188 1131.566406 774.300781 C 1129.691406 775.613281 1127.765625 776.835938 1125.78125 777.980469 C 1123.800781 779.121094 1121.773438 780.171875 1119.699219 781.136719 C 1117.625 782.101562 1115.515625 782.972656 1113.363281 783.753906 C 1111.214844 784.53125 1109.035156 785.214844 1106.824219 785.804688 C 1104.613281 786.390625 1102.382812 786.882812 1100.128906 787.273438 C 1097.878906 787.667969 1095.613281 787.960938 1093.332031 788.15625 C 1091.054688 788.347656 1088.773438 788.441406 1086.484375 788.4375 C 1084.199219 788.429688 1081.917969 788.324219 1079.640625 788.121094 C 1077.363281 787.914062 1075.097656 787.609375 1072.847656 787.203125 C 1070.59375 786.800781 1068.367188 786.296875 1066.160156 785.699219 C 1063.953125 785.101562 1061.777344 784.40625 1059.628906 783.613281 C 1057.484375 782.824219 1055.378906 781.941406 1053.308594 780.96875 C 1051.238281 779.992188 1049.21875 778.929688 1047.242188 777.777344 C 1045.265625 776.625 1043.34375 775.390625 1041.476562 774.070312 C 1039.609375 772.75 1037.804688 771.351562 1036.058594 769.871094 C 1034.316406 768.394531 1032.636719 766.84375 1031.03125 765.21875 C 1029.421875 763.59375 1027.886719 761.898438 1026.425781 760.140625 C 1024.964844 758.378906 1023.585938 756.558594 1022.285156 754.679688 C 1020.984375 752.796875 1019.765625 750.863281 1018.632812 748.878906 C 1017.503906 746.890625 1016.460938 744.855469 1015.507812 742.777344 C 1014.554688 740.699219 1013.691406 738.585938 1012.925781 736.429688 C 1012.15625 734.277344 1011.484375 732.09375 1010.90625 729.878906 C 1010.332031 727.667969 1009.851562 725.433594 1009.46875 723.179688 C 1009.089844 720.921875 1008.808594 718.65625 1008.625 716.375 C 1008.441406 714.097656 1008.359375 711.8125 1008.375 709.527344 C 1008.394531 707.242188 1008.511719 704.960938 1008.730469 702.683594 C 1008.945312 700.40625 1009.261719 698.144531 1009.679688 695.894531 C 1010.09375 693.644531 1010.605469 691.417969 1011.21875 689.214844 C 1011.828125 687.011719 1012.535156 684.839844 1013.335938 682.699219 C 1014.136719 680.554688 1015.03125 678.453125 1016.015625 676.390625 C 1016.527344 675.3125 1016.867188 674.183594 1017.03125 673.003906 C 1017.195312 671.824219 1017.175781 670.644531 1016.976562 669.472656 C 1016.773438 668.296875 1016.398438 667.179688 1015.851562 666.121094 C 1015.300781 665.0625 1014.605469 664.113281 1013.765625 663.269531 L 978.546875 628.050781 L 978.53125 628.039062 L 936.65625 586.160156 C 936.511719 585.996094 936.378906 585.835938 936.226562 585.6875 C 936.074219 585.535156 935.910156 585.398438 935.75 585.253906 L 872.996094 522.5 C 872.691406 522.15625 872.363281 521.828125 872.019531 521.523438 L 786.722656 436.238281 C 787.875 435.546875 789.050781 434.90625 790.253906 434.316406 C 791.453125 433.722656 792.679688 433.183594 793.925781 432.691406 C 795.175781 432.203125 796.441406 431.761719 797.722656 431.378906 C 799.007812 430.992188 800.304688 430.65625 801.613281 430.378906 C 802.925781 430.101562 804.246094 429.875 805.574219 429.703125 C 806.90625 429.535156 808.238281 429.417969 809.578125 429.359375 C 810.917969 429.300781 812.257812 429.296875 813.597656 429.347656 C 814.9375 429.394531 816.269531 429.503906 817.601562 429.664062 C 818.933594 429.824219 820.253906 430.039062 821.566406 430.308594 C 822.878906 430.578125 824.179688 430.902344 825.464844 431.28125 C 826.753906 431.65625 828.019531 432.085938 829.269531 432.566406 C 830.523438 433.050781 831.75 433.582031 832.957031 434.164062 C 834.164062 434.75 835.34375 435.382812 836.5 436.0625 C 837.652344 436.742188 838.777344 437.46875 839.875 438.242188 C 840.96875 439.015625 842.027344 439.835938 843.054688 440.695312 C 844.082031 441.558594 845.074219 442.460938 846.027344 443.402344 L 961.808594 559.183594 C 961.949219 559.351562 962.085938 559.515625 962.238281 559.660156 C 962.394531 559.808594 962.558594 559.953125 962.71875 560.097656 L 1004.601562 601.972656 L 1039.828125 637.199219 C 1040.671875 638.042969 1041.621094 638.738281 1042.679688 639.289062 C 1043.738281 639.835938 1044.855469 640.210938 1046.03125 640.410156 C 1047.207031 640.613281 1048.382812 640.632812 1049.5625 640.46875 C 1050.746094 640.304688 1051.871094 639.964844 1052.949219 639.453125 C 1055.011719 638.46875 1057.113281 637.574219 1059.257812 636.773438 C 1061.398438 635.972656 1063.570312 635.265625 1065.777344 634.65625 C 1067.980469 634.042969 1070.207031 633.53125 1072.453125 633.117188 C 1074.703125 632.699219 1076.964844 632.382812 1079.242188 632.164062 C 1081.519531 631.949219 1083.800781 631.832031 1086.089844 631.8125 C 1088.375 631.796875 1090.65625 631.878906 1092.9375 632.058594 C 1095.21875 632.242188 1097.484375 632.523438 1099.738281 632.90625 C 1101.996094 633.285156 1104.226562 633.765625 1106.441406 634.34375 C 1108.65625 634.917969 1110.839844 635.589844 1112.992188 636.359375 C 1115.144531 637.128906 1117.261719 637.988281 1119.339844 638.941406 C 1121.417969 639.894531 1123.453125 640.9375 1125.441406 642.070312 C 1127.425781 643.203125 1129.363281 644.417969 1131.242188 645.71875 C 1133.121094 647.019531 1134.941406 648.402344 1136.703125 649.859375 C 1138.460938 651.320312 1140.15625 652.855469 1141.78125 654.464844 C 1143.40625 656.074219 1144.957031 657.75 1146.4375 659.496094 C 1147.914062 661.242188 1149.3125 663.046875 1150.632812 664.914062 C 1151.953125 666.78125 1153.191406 668.703125 1154.34375 670.679688 C 1155.492188 672.652344 1156.558594 674.675781 1157.53125 676.746094 C 1158.507812 678.8125 1159.390625 680.921875 1160.179688 683.066406 C 1160.96875 685.214844 1161.664062 687.390625 1162.261719 689.597656 C 1162.863281 691.804688 1163.363281 694.03125 1163.769531 696.285156 C 1164.171875 698.535156 1164.476562 700.800781 1164.683594 703.078125 C 1164.886719 705.355469 1164.996094 707.636719 1165 709.921875 C 1165.003906 712.210938 1164.910156 714.492188 1164.71875 716.773438 C 1164.523438 719.050781 1164.230469 721.316406 1163.835938 723.570312 C 1163.445312 725.820312 1162.953125 728.054688 1162.363281 730.261719 C 1161.777344 732.472656 1161.09375 734.652344 1160.3125 736.804688 C 1159.535156 738.953125 1158.664062 741.066406 1157.699219 743.140625 C 1156.734375 745.214844 1155.679688 747.242188 1154.539062 749.222656 C 1153.398438 751.203125 1152.171875 753.132812 1150.859375 755.003906 C 1149.550781 756.878906 1148.160156 758.691406 1146.691406 760.445312 C 1145.21875 762.195312 1143.675781 763.882812 1142.058594 765.496094 Z M 1127.53125 750.996094 C 1128.535156 749.992188 1129.5 748.953125 1130.429688 747.875 C 1131.355469 746.800781 1132.242188 745.695312 1133.085938 744.554688 C 1133.929688 743.414062 1134.734375 742.246094 1135.492188 741.046875 C 1136.25 739.847656 1136.964844 738.621094 1137.632812 737.371094 C 1138.304688 736.117188 1138.925781 734.84375 1139.5 733.546875 C 1140.074219 732.25 1140.601562 730.933594 1141.078125 729.59375 C 1141.558594 728.257812 1141.984375 726.90625 1142.363281 725.539062 C 1142.742188 724.171875 1143.070312 722.792969 1143.347656 721.398438 C 1143.625 720.007812 1143.847656 718.609375 1144.023438 717.199219 C 1144.195312 715.792969 1144.320312 714.378906 1144.386719 712.960938 C 1144.457031 711.542969 1144.476562 710.125 1144.441406 708.707031 C 1144.40625 707.289062 1144.320312 705.871094 1144.179688 704.460938 C 1144.042969 703.046875 1143.851562 701.640625 1143.609375 700.242188 C 1143.367188 698.84375 1143.070312 697.457031 1142.726562 696.082031 C 1142.382812 694.703125 1141.988281 693.34375 1141.542969 691.996094 C 1141.097656 690.648438 1140.605469 689.316406 1140.0625 688.007812 C 1139.519531 686.695312 1138.929688 685.40625 1138.289062 684.136719 C 1137.652344 682.871094 1136.96875 681.628906 1136.242188 680.410156 C 1135.511719 679.191406 1134.738281 678.003906 1133.921875 676.84375 C 1133.105469 675.683594 1132.246094 674.554688 1131.347656 673.457031 C 1130.445312 672.359375 1129.507812 671.296875 1128.527344 670.269531 C 1127.550781 669.238281 1126.535156 668.25 1125.484375 667.296875 C 1124.433594 666.34375 1123.347656 665.429688 1122.230469 664.554688 C 1121.113281 663.683594 1119.964844 662.851562 1118.785156 662.0625 C 1117.605469 661.273438 1116.398438 660.527344 1115.164062 659.828125 C 1113.925781 659.128906 1112.667969 658.472656 1111.386719 657.867188 C 1110.105469 657.257812 1108.800781 656.699219 1107.476562 656.1875 C 1106.152344 655.675781 1104.8125 655.214844 1103.453125 654.800781 C 1102.097656 654.390625 1100.726562 654.027344 1099.339844 653.714844 C 1097.957031 653.402344 1096.5625 653.144531 1095.160156 652.933594 C 1093.753906 652.726562 1092.34375 652.566406 1090.929688 652.460938 C 1089.515625 652.359375 1088.097656 652.304688 1086.679688 652.304688 C 1085.496094 652.300781 1084.3125 652.339844 1083.132812 652.410156 C 1081.953125 652.480469 1080.773438 652.589844 1079.601562 652.734375 C 1078.425781 652.878906 1077.257812 653.058594 1076.09375 653.273438 C 1074.929688 653.488281 1073.773438 653.742188 1072.628906 654.027344 C 1071.480469 654.316406 1070.339844 654.636719 1069.214844 654.992188 C 1068.085938 655.351562 1066.96875 655.742188 1065.863281 656.167969 C 1064.761719 656.589844 1063.671875 657.050781 1062.59375 657.542969 C 1061.519531 658.035156 1060.460938 658.558594 1059.414062 659.117188 C 1058.371094 659.671875 1057.347656 660.261719 1056.339844 660.882812 C 1055.332031 661.503906 1054.34375 662.152344 1053.375 662.835938 C 1052.410156 663.515625 1051.460938 664.222656 1050.539062 664.964844 C 1049.613281 665.703125 1048.714844 666.46875 1047.835938 667.261719 C 1046.960938 668.058594 1046.109375 668.878906 1045.28125 669.722656 C 1044.457031 670.570312 1043.65625 671.441406 1042.882812 672.335938 C 1042.109375 673.230469 1041.363281 674.152344 1040.648438 675.09375 C 1039.929688 676.03125 1039.242188 676.996094 1038.585938 677.980469 C 1037.929688 678.960938 1037.300781 679.964844 1036.703125 680.988281 C 1036.109375 682.007812 1035.542969 683.046875 1035.011719 684.105469 C 1034.480469 685.160156 1033.980469 686.234375 1033.515625 687.320312 C 1033.046875 688.40625 1032.613281 689.507812 1032.214844 690.621094 C 1031.816406 691.734375 1031.453125 692.859375 1031.121094 693.996094 C 1030.792969 695.132812 1030.496094 696.277344 1030.238281 697.433594 C 1029.976562 698.585938 1029.753906 699.75 1029.566406 700.917969 C 1029.378906 702.085938 1029.226562 703.257812 1029.109375 704.433594 C 1028.992188 705.613281 1028.914062 706.792969 1028.867188 707.972656 C 1028.824219 709.15625 1028.816406 710.339844 1028.847656 711.519531 C 1028.875 712.703125 1028.941406 713.882812 1029.039062 715.0625 C 1029.140625 716.242188 1029.277344 717.417969 1029.453125 718.585938 C 1029.625 719.757812 1029.835938 720.921875 1030.078125 722.078125 C 1030.324219 723.238281 1030.605469 724.386719 1030.917969 725.527344 C 1031.234375 726.667969 1031.585938 727.796875 1031.96875 728.914062 C 1032.355469 730.035156 1032.773438 731.140625 1033.226562 732.234375 C 1033.675781 733.324219 1034.164062 734.402344 1034.683594 735.46875 C 1035.199219 736.53125 1035.75 737.578125 1036.335938 738.605469 C 1036.917969 739.636719 1037.53125 740.648438 1038.175781 741.636719 C 1038.820312 742.628906 1039.496094 743.601562 1040.199219 744.550781 C 1040.90625 745.503906 1041.636719 746.429688 1042.398438 747.335938 C 1043.160156 748.242188 1043.949219 749.121094 1044.765625 749.980469 C 1045.582031 750.835938 1046.421875 751.667969 1047.289062 752.472656 C 1048.15625 753.277344 1049.046875 754.054688 1049.960938 754.804688 C 1050.875 755.558594 1051.8125 756.277344 1052.769531 756.972656 C 1053.730469 757.664062 1054.707031 758.328125 1055.707031 758.960938 C 1056.707031 759.59375 1057.726562 760.195312 1058.761719 760.765625 C 1059.796875 761.335938 1060.851562 761.875 1061.921875 762.382812 C 1062.992188 762.886719 1064.074219 763.359375 1065.171875 763.800781 C 1066.273438 764.238281 1067.382812 764.644531 1068.507812 765.015625 C 1069.628906 765.386719 1070.761719 765.722656 1071.90625 766.023438 C 1073.050781 766.328125 1074.203125 766.59375 1075.363281 766.824219 C 1076.523438 767.054688 1077.691406 767.25 1078.863281 767.410156 C 1080.035156 767.566406 1081.210938 767.691406 1082.390625 767.777344 C 1083.570312 767.863281 1084.753906 767.914062 1085.933594 767.929688 C 1087.117188 767.945312 1088.300781 767.921875 1089.480469 767.863281 C 1090.664062 767.808594 1091.84375 767.710938 1093.019531 767.582031 C 1094.195312 767.453125 1095.367188 767.285156 1096.53125 767.082031 C 1097.695312 766.878906 1098.855469 766.644531 1100.007812 766.371094 C 1101.15625 766.097656 1102.300781 765.789062 1103.429688 765.445312 C 1104.5625 765.101562 1105.683594 764.722656 1106.792969 764.308594 C 1107.902344 763.898438 1108.996094 763.453125 1110.078125 762.972656 C 1111.160156 762.492188 1112.226562 761.980469 1113.277344 761.4375 C 1114.324219 760.890625 1115.359375 760.3125 1116.375 759.707031 C 1117.386719 759.097656 1118.382812 758.457031 1119.359375 757.789062 C 1120.332031 757.121094 1121.289062 756.421875 1122.21875 755.691406 C 1123.152344 754.964844 1124.0625 754.210938 1124.949219 753.425781 C 1125.835938 752.640625 1126.695312 751.832031 1127.53125 750.996094 Z M 1086.679688 675.359375 C 1084.398438 675.351562 1082.136719 675.570312 1079.898438 676.011719 C 1077.660156 676.453125 1075.488281 677.113281 1073.382812 677.988281 C 1071.273438 678.859375 1069.273438 679.933594 1067.378906 681.203125 C 1065.484375 682.476562 1063.734375 683.921875 1062.125 685.539062 L 1062.105469 685.5625 C 1061.640625 686.03125 1061.1875 686.511719 1060.746094 687.007812 C 1060.308594 687.503906 1059.882812 688.007812 1059.472656 688.527344 C 1059.0625 689.046875 1058.667969 689.578125 1058.289062 690.121094 C 1057.90625 690.664062 1057.542969 691.214844 1057.195312 691.777344 C 1056.847656 692.339844 1056.515625 692.914062 1056.199219 693.496094 C 1055.882812 694.078125 1055.585938 694.667969 1055.304688 695.265625 C 1055.019531 695.863281 1054.757812 696.46875 1054.511719 697.085938 C 1054.261719 697.699219 1054.035156 698.320312 1053.820312 698.945312 C 1053.609375 699.574219 1053.417969 700.207031 1053.242188 700.84375 C 1053.066406 701.484375 1052.910156 702.125 1052.769531 702.773438 C 1052.632812 703.417969 1052.511719 704.070312 1052.410156 704.722656 C 1052.3125 705.378906 1052.226562 706.035156 1052.164062 706.695312 C 1052.101562 707.351562 1052.054688 708.011719 1052.03125 708.671875 C 1052.003906 709.335938 1051.996094 709.996094 1052.007812 710.65625 C 1052.023438 711.320312 1052.054688 711.980469 1052.101562 712.640625 C 1052.152344 713.300781 1052.222656 713.957031 1052.308594 714.613281 C 1052.394531 715.269531 1052.503906 715.921875 1052.628906 716.574219 C 1052.753906 717.222656 1052.894531 717.867188 1053.058594 718.511719 C 1053.21875 719.152344 1053.398438 719.789062 1053.597656 720.421875 C 1053.796875 721.050781 1054.011719 721.675781 1054.246094 722.296875 C 1054.480469 722.914062 1054.734375 723.527344 1055.003906 724.132812 C 1055.273438 724.734375 1055.558594 725.332031 1055.859375 725.921875 C 1056.164062 726.507812 1056.484375 727.085938 1056.820312 727.65625 C 1057.15625 728.226562 1057.511719 728.789062 1057.878906 729.335938 C 1058.246094 729.886719 1058.632812 730.425781 1059.03125 730.953125 C 1059.429688 731.480469 1059.84375 731.996094 1060.273438 732.5 C 1060.703125 733.003906 1061.144531 733.496094 1061.601562 733.976562 C 1062.058594 734.453125 1062.53125 734.917969 1063.015625 735.371094 C 1063.496094 735.820312 1063.992188 736.257812 1064.503906 736.683594 C 1065.011719 737.105469 1065.53125 737.515625 1066.0625 737.90625 C 1066.597656 738.300781 1067.140625 738.679688 1067.691406 739.042969 C 1068.246094 739.402344 1068.808594 739.75 1069.382812 740.078125 C 1069.957031 740.410156 1070.539062 740.722656 1071.132812 741.019531 C 1071.722656 741.316406 1072.324219 741.597656 1072.929688 741.859375 C 1073.539062 742.121094 1074.152344 742.367188 1074.773438 742.59375 C 1075.394531 742.820312 1076.023438 743.03125 1076.65625 743.222656 C 1077.289062 743.414062 1077.929688 743.585938 1078.574219 743.738281 C 1079.214844 743.894531 1079.863281 744.03125 1080.515625 744.148438 C 1081.167969 744.265625 1081.820312 744.363281 1082.476562 744.445312 C 1083.132812 744.523438 1083.792969 744.585938 1084.453125 744.628906 C 1085.113281 744.671875 1085.773438 744.695312 1086.4375 744.699219 C 1087.097656 744.703125 1087.761719 744.691406 1088.421875 744.65625 C 1089.082031 744.625 1089.742188 744.570312 1090.398438 744.5 C 1091.058594 744.429688 1091.714844 744.339844 1092.367188 744.230469 C 1093.019531 744.121094 1093.667969 743.996094 1094.3125 743.847656 C 1094.960938 743.703125 1095.601562 743.539062 1096.234375 743.355469 C 1096.871094 743.175781 1097.503906 742.972656 1098.128906 742.753906 C 1098.753906 742.535156 1099.371094 742.300781 1099.980469 742.046875 C 1100.59375 741.792969 1101.195312 741.523438 1101.792969 741.234375 C 1102.386719 740.945312 1102.972656 740.640625 1103.550781 740.316406 C 1104.128906 739.996094 1104.699219 739.65625 1105.257812 739.300781 C 1105.816406 738.949219 1106.363281 738.578125 1106.902344 738.191406 C 1107.441406 737.804688 1107.964844 737.40625 1108.480469 736.988281 C 1108.996094 736.570312 1109.496094 736.140625 1109.988281 735.695312 C 1110.476562 735.25 1110.953125 734.792969 1111.417969 734.320312 C 1111.882812 733.847656 1112.332031 733.363281 1112.765625 732.867188 C 1113.203125 732.367188 1113.625 731.859375 1114.03125 731.335938 C 1114.4375 730.8125 1114.828125 730.28125 1115.207031 729.734375 C 1115.582031 729.191406 1115.941406 728.636719 1116.285156 728.070312 C 1116.632812 727.507812 1116.957031 726.929688 1117.269531 726.347656 C 1117.582031 725.761719 1117.875 725.171875 1118.152344 724.570312 C 1118.433594 723.96875 1118.691406 723.359375 1118.933594 722.746094 C 1119.175781 722.128906 1119.402344 721.507812 1119.609375 720.878906 C 1119.816406 720.25 1120.003906 719.617188 1120.175781 718.976562 C 1120.347656 718.335938 1120.5 717.695312 1120.632812 717.046875 C 1120.769531 716.398438 1120.882812 715.746094 1120.980469 715.089844 C 1121.078125 714.4375 1121.15625 713.78125 1121.214844 713.121094 C 1121.273438 712.460938 1121.3125 711.800781 1121.332031 711.140625 C 1121.355469 710.476562 1121.359375 709.816406 1121.339844 709.15625 C 1121.324219 708.492188 1121.289062 707.832031 1121.234375 707.171875 C 1121.179688 706.515625 1121.105469 705.855469 1121.015625 705.199219 C 1120.921875 704.546875 1120.8125 703.894531 1120.683594 703.246094 C 1120.550781 702.59375 1120.40625 701.949219 1120.238281 701.308594 C 1120.070312 700.667969 1119.886719 700.035156 1119.683594 699.402344 C 1119.480469 698.773438 1119.261719 698.148438 1119.023438 697.53125 C 1118.785156 696.914062 1118.527344 696.304688 1118.253906 695.703125 C 1117.980469 695.101562 1117.691406 694.503906 1117.382812 693.917969 C 1117.078125 693.332031 1116.753906 692.757812 1116.410156 692.1875 C 1116.070312 691.621094 1115.714844 691.0625 1115.34375 690.515625 C 1114.96875 689.96875 1114.582031 689.433594 1114.179688 688.910156 C 1113.777344 688.382812 1113.359375 687.871094 1112.925781 687.371094 C 1112.492188 686.871094 1112.046875 686.382812 1111.585938 685.90625 C 1111.125 685.429688 1110.652344 684.96875 1110.164062 684.519531 C 1109.679688 684.070312 1109.179688 683.636719 1108.667969 683.21875 C 1108.15625 682.796875 1107.632812 682.394531 1107.097656 682.003906 C 1106.5625 681.613281 1106.019531 681.238281 1105.460938 680.882812 C 1104.90625 680.523438 1104.339844 680.179688 1103.761719 679.855469 C 1103.1875 679.527344 1102.601562 679.21875 1102.007812 678.925781 C 1101.414062 678.632812 1100.8125 678.359375 1100.203125 678.101562 C 1099.59375 677.839844 1098.980469 677.601562 1098.355469 677.378906 C 1097.730469 677.15625 1097.101562 676.949219 1096.46875 676.765625 C 1095.832031 676.578125 1095.195312 676.410156 1094.550781 676.257812 C 1093.90625 676.109375 1093.257812 675.976562 1092.605469 675.863281 C 1091.953125 675.75 1091.296875 675.65625 1090.640625 675.578125 C 1089.984375 675.503906 1089.324219 675.449219 1088.664062 675.410156 C 1088 675.371094 1087.339844 675.351562 1086.679688 675.351562 Z M 1086.679688 442.839844 C 1084.96875 442.839844 1083.269531 442.960938 1081.578125 443.210938 C 1079.886719 443.460938 1078.226562 443.835938 1076.589844 444.328125 C 1074.953125 444.824219 1073.363281 445.4375 1071.816406 446.167969 C 1070.273438 446.898438 1068.789062 447.738281 1067.367188 448.6875 C 1065.945312 449.636719 1064.601562 450.683594 1063.335938 451.832031 C 1062.070312 452.976562 1060.894531 454.210938 1059.808594 455.53125 C 1058.722656 456.855469 1057.742188 458.246094 1056.863281 459.710938 C 1055.984375 461.179688 1055.21875 462.699219 1054.5625 464.28125 C 1053.910156 465.859375 1053.375 467.476562 1052.960938 469.136719 C 1052.542969 470.792969 1052.253906 472.472656 1052.085938 474.171875 C 1051.917969 475.875 1051.875 477.578125 1051.960938 479.285156 C 1052.046875 480.992188 1052.253906 482.683594 1052.589844 484.359375 C 1052.921875 486.035156 1053.375 487.679688 1053.953125 489.289062 C 1054.53125 490.894531 1055.222656 492.453125 1056.027344 493.960938 C 1056.832031 495.46875 1057.746094 496.90625 1058.765625 498.28125 C 1059.785156 499.652344 1060.898438 500.941406 1062.105469 502.148438 L 1062.117188 502.160156 C 1062.621094 502.660156 1063.136719 503.148438 1063.667969 503.617188 C 1064.203125 504.085938 1064.75 504.539062 1065.308594 504.976562 C 1065.871094 505.414062 1066.441406 505.832031 1067.027344 506.234375 C 1067.613281 506.636719 1068.210938 507.019531 1068.824219 507.382812 C 1069.433594 507.746094 1070.050781 508.09375 1070.683594 508.421875 C 1071.3125 508.746094 1071.953125 509.054688 1072.605469 509.339844 C 1073.253906 509.628906 1073.910156 509.894531 1074.578125 510.140625 C 1075.242188 510.390625 1075.917969 510.617188 1076.597656 510.820312 C 1077.277344 511.027344 1077.960938 511.210938 1078.652344 511.375 C 1079.34375 511.539062 1080.039062 511.679688 1080.738281 511.800781 C 1081.441406 511.921875 1082.144531 512.023438 1082.847656 512.101562 C 1083.554688 512.179688 1084.261719 512.234375 1084.972656 512.269531 C 1085.683594 512.304688 1086.390625 512.316406 1087.101562 512.304688 C 1087.8125 512.296875 1088.523438 512.265625 1089.230469 512.214844 C 1089.9375 512.160156 1090.644531 512.085938 1091.347656 511.992188 C 1092.050781 511.894531 1092.753906 511.777344 1093.449219 511.636719 C 1094.144531 511.5 1094.835938 511.339844 1095.523438 511.15625 C 1096.210938 510.976562 1096.890625 510.773438 1097.566406 510.550781 C 1098.242188 510.328125 1098.90625 510.085938 1099.566406 509.820312 C 1100.226562 509.554688 1100.875 509.273438 1101.519531 508.96875 C 1102.160156 508.664062 1102.792969 508.339844 1103.414062 507.996094 C 1104.039062 507.65625 1104.648438 507.292969 1105.25 506.914062 C 1105.847656 506.53125 1106.4375 506.132812 1107.011719 505.71875 C 1107.585938 505.300781 1108.148438 504.867188 1108.699219 504.417969 C 1109.246094 503.964844 1109.78125 503.5 1110.300781 503.015625 C 1110.824219 502.53125 1111.328125 502.03125 1111.816406 501.519531 C 1112.308594 501.003906 1112.78125 500.476562 1113.238281 499.929688 C 1113.695312 499.386719 1114.136719 498.832031 1114.558594 498.257812 C 1114.980469 497.6875 1115.386719 497.105469 1115.773438 496.511719 C 1116.160156 495.914062 1116.527344 495.308594 1116.878906 494.691406 C 1117.230469 494.070312 1117.558594 493.445312 1117.871094 492.804688 C 1118.183594 492.167969 1118.472656 491.519531 1118.746094 490.863281 C 1119.019531 490.207031 1119.269531 489.542969 1119.5 488.871094 C 1119.730469 488.199219 1119.941406 487.519531 1120.132812 486.835938 C 1120.320312 486.152344 1120.488281 485.460938 1120.636719 484.765625 C 1120.78125 484.070312 1120.910156 483.375 1121.011719 482.671875 C 1121.117188 481.96875 1121.199219 481.261719 1121.261719 480.554688 C 1121.320312 479.847656 1121.359375 479.136719 1121.378906 478.429688 C 1121.394531 477.71875 1121.390625 477.007812 1121.363281 476.296875 C 1121.339844 475.589844 1121.292969 474.878906 1121.222656 474.171875 C 1121.152344 473.464844 1121.0625 472.761719 1120.949219 472.058594 C 1120.835938 471.359375 1120.703125 470.660156 1120.546875 469.96875 C 1120.390625 469.277344 1120.214844 468.585938 1120.015625 467.90625 C 1119.816406 467.222656 1119.597656 466.546875 1119.359375 465.878906 C 1119.121094 465.210938 1118.863281 464.550781 1118.582031 463.894531 C 1118.300781 463.242188 1118.003906 462.597656 1117.683594 461.964844 C 1117.363281 461.332031 1117.027344 460.707031 1116.667969 460.09375 C 1116.3125 459.476562 1115.933594 458.875 1115.539062 458.285156 C 1115.144531 457.695312 1114.734375 457.117188 1114.304688 456.550781 C 1113.875 455.984375 1113.425781 455.433594 1112.964844 454.894531 C 1112.5 454.359375 1112.019531 453.835938 1111.523438 453.324219 C 1111.027344 452.816406 1110.515625 452.324219 1109.992188 451.847656 C 1109.464844 451.371094 1108.925781 450.910156 1108.371094 450.464844 C 1107.816406 450.019531 1107.246094 449.59375 1106.667969 449.183594 C 1106.085938 448.777344 1105.496094 448.382812 1104.890625 448.011719 C 1104.285156 447.636719 1103.667969 447.285156 1103.042969 446.949219 C 1102.417969 446.613281 1101.78125 446.296875 1101.136719 446.003906 C 1100.488281 445.707031 1099.835938 445.429688 1099.171875 445.175781 C 1098.511719 444.917969 1097.839844 444.683594 1097.164062 444.46875 C 1096.488281 444.253906 1095.804688 444.058594 1095.113281 443.886719 C 1094.425781 443.710938 1093.730469 443.5625 1093.035156 443.429688 C 1092.335938 443.300781 1091.632812 443.191406 1090.929688 443.105469 C 1090.222656 443.015625 1089.515625 442.949219 1088.808594 442.90625 C 1088.097656 442.863281 1087.390625 442.839844 1086.679688 442.839844 Z M 1086.679688 442.839844 " fill-opacity="1" fill-rule="nonzero"/></g></svg>